<svg  viewBox="0 0 1024 1024"><path d="M852 876H176a24 24 0 0 1-24-24V188a24 24 0 0 1 24-24h676a24 24 0 0 1 24 24v664a24 24 0 0 1-24 24zM176 172a16 16 0 0 0-16 16v664a16 16 0 0 0 16 16h676a16 16 0 0 0 16-16V188a16 16 0 0 0-16-16zm304 688H192a24 24 0 0 1-24-24V204a24 24 0 0 1 24-24h644a24 24 0 0 1 24 24v631.6a24 24 0 0 1-24 24H484.44a27.36 27.36 0 0 1-4.44.4zM192 188a16 16 0 0 0-16 16v632a16 16 0 0 0 16 16h288a18.24 18.24 0 0 0 3.28-.32h352.8a16 16 0 0 0 16-16V204a16 16 0 0 0-16-16z"/><path d="M816 836H528V204h288a20 20 0 0 1 20 20v592a20 20 0 0 1-20 20zm-280-8h280a12 12 0 0 0 12-12V224a12 12 0 0 0-12-12H536z"/><path d="M780 492H592v-48h188zm-180-8h172v-32H600zm180 100H592v-48h188zm-180-8h172v-32H600zm-90.44-72H212a20 20 0 0 1-20-20V224a20 20 0 0 1 20-20h297.56zM212 212a12 12 0 0 0-12 12v260a12 12 0 0 0 12 12h289.56V212zm297.56 624H212a20 20 0 0 1-20-20V540a20 20 0 0 1 20-20h297.56zM212 528a12 12 0 0 0-12 12v276a12 12 0 0 0 12 12h289.56V528z"/><path d="M376 456h-48v-72h-72v-48h72v-68h48v68h68v48h-68zm-40-8h32v-72h68v-32h-68v-68h-32v68h-72v32h72zM444 704H256v-48h188zm-180-8h172v-32H264z"/></svg>