<svg  viewBox="0 0 1024 1024"><path d="M262.2 712.5l-21.87-155.6 155.55-21.86 21.86 155.6zm-16.08-151.25l20.48 145.46L412 686.23l-20.47-145.46zM226 798.72a32.56 32.56 0 1 1 32.56-32.56A32.56 32.56 0 0 1 226 798.72zm0-60a27.44 27.44 0 1 0 27.44 27.44 27.5 27.5 0 0 0-27.44-27.6z"/><path d="M886.58 826.57H137.42V470.32h2.3l34.92-5.12 37.02 263.89a38.04 38.04 0 0 1 16.33-3.64 38.2 38.2 0 0 1 10.24 1.44l-40.96-291.84-59.9 8.44V313.45h749.2zm-744.04-5.12h738.92V318.57H142.54V437.4l58.98-8.3v.52l.57 2.05 42.6 303-4.1-1.64a33.48 33.48 0 0 0-12.65-2.46 33.38 33.38 0 0 0-17.1 4.66l-3.84 2.3v-4.5l-36.76-261.99-27.7 3.9zm118.58-50.94v-6.4a33.43 33.43 0 0 0-11.42-25.24l-4.2-3.69 199.68-28.06a14.54 14.54 0 0 1 16.39 12.4l1.12 7.98A14.6 14.6 0 0 1 450.56 744zm-4.15-31.75a38.55 38.55 0 0 1 9.42 25.25v.56l183.15-25.6a9.47 9.47 0 0 0 7.98-10.7l-1.12-7.99a9.47 9.47 0 0 0-10.6-8.04zm633.6-432.17H141.41V254.1l372.95-111.98h.71l375.5 111.77zm-744.04-5.12h738.92v-43.58l-371.1-110.43-367.82 110.43z"/><path d="M361.83 656.84a10.75 10.75 0 0 1-2.87-.35 12.44 12.44 0 0 1-9.37-15l1.33-5.43-59.08 8.5a12.85 12.85 0 0 1-14.39-10.7 12.6 12.6 0 0 1 2.26-9.42 12.44 12.44 0 0 1 8.24-5.12l57.34-8.6-3.63-4.51a12.6 12.6 0 0 1 2.4-17.41 13 13 0 0 1 17.98 2.4L378 611.7a11.26 11.26 0 0 1 1.07 1.63 10.6 10.6 0 0 1 1.64 6.46 8.9 8.9 0 0 1 0 1.69l-6.35 25.6a12.95 12.95 0 0 1-12.54 9.77zm-4.04-27.08l-3.23 12.75a7.42 7.42 0 0 0 5.53 8.9 7.83 7.83 0 0 0 9.32-5.68l6.24-25.6a5.12 5.12 0 0 0 0-.66 6.2 6.2 0 0 0-.92-3.94 5.73 5.73 0 0 0-.66-1.08l-16.03-20.48a7.78 7.78 0 0 0-10.8-1.43 7.37 7.37 0 0 0-1.49 10.24l9.07 11.62-66.05 10.24a7.53 7.53 0 0 0-6.25 8.6 7.63 7.63 0 0 0 8.6 6.4zM207.05 737.54v-4.51l-36.81-261.99-29.54 4.15a14.6 14.6 0 0 1-16.44-12.4l-1.12-7.98a14.6 14.6 0 0 1 12.08-16.33h.77l65.53-9.27 42.96 305.56-4.1-1.64a33.48 33.48 0 0 0-12.64-2.45 33.38 33.38 0 0 0-17.1 4.65zm-32.4-272.34l37.01 263.89a38.04 38.04 0 0 1 16.33-3.64 38.2 38.2 0 0 1 10.24 1.44l-40.96-291.84-60.92 8.4a9.52 9.52 0 0 0-8.35 10.6l1.13 7.98a9.47 9.47 0 0 0 10.65 8.04zm86.47 305.3v-6.39a33.43 33.43 0 0 0-11.42-25.24l-4.2-3.69 199.68-28.06a14.54 14.54 0 0 1 16.39 12.4l1.12 7.98A14.6 14.6 0 0 1 450.56 744zm-4.15-31.74a38.55 38.55 0 0 1 9.42 25.25v.56l183.15-25.6a9.47 9.47 0 0 0 7.98-10.7l-1.12-7.99a9.42 9.42 0 0 0-10.6-8.04z"/></svg>