<svg  viewBox="0 0 1024 1024"><path d="M686.54 574.67h-335.3c-55.76 0-84.03-28.26-84.03-84.07v-5.12c0-55.76 28.27-84.02 84.02-84.02h335.31c55.76 0 84.02 28.26 84.02 84.02v5.12c0 55.8-28.16 84.07-84.02 84.07zm-335.3-168.1c-53.1 0-78.9 25.6-78.9 78.9v5.13c0 53.14 25.6 78.95 78.9 78.95h335.3c53.1 0 78.9-25.6 78.9-78.95v-5.12c0-53.1-25.6-78.9-78.9-78.9z"/><path d="M448.2 574.57h-34.66l-.77-.93a132.04 132.04 0 0 1 .52-171.26l.76-.92h34.72l-3.59 4.2a127.08 127.08 0 0 0-.5 164.7zm-32.3-5.12h21.45a132.1 132.1 0 0 1 .51-162.87h-21.45a127.03 127.03 0 0 0-.51 162.87zM222.72 704h-25.3V512a40.5 40.5 0 0 1 7.38-23.91 29.9 29.9 0 0 1 25.6-10.24h41.78v25.14h-40.96c-2 0-6.2 0-7.22 1.28a14.6 14.6 0 0 0-1.28 7.73zm-20.17-5.12h15.05V512a19.3 19.3 0 0 1 2.15-10.8c2.71-4.05 8.35-3.9 11.73-3.8h35.84v-14.84h-36.66c-10.5 0-17.1 2.56-21.4 8.4a35.33 35.33 0 0 0-6.71 21.04zm637.8 4.97H815.2V512a15.36 15.36 0 0 0-1.7-8.3c-.86-1.22-5.11-1.07-7.06-1.02H765.5v-25.24h41.78a29.8 29.8 0 0 1 25.6 10.24 40.35 40.35 0 0 1 7.63 23.96zm-20.02-5.12h14.9V512a35.28 35.28 0 0 0-6.66-20.94c-4.25-5.79-10.85-8.35-21.35-8.35h-36.66v14.9h35.84c3.38 0 9.01-.25 11.57 3.54a20.07 20.07 0 0 1 2.46 11.1z"/></svg>