<svg  viewBox="0 0 1024 1024"><path d="M884.02 694.58H497.46v-88.73c-.62-23.65-.56-30.72 0-58.93v-12.8h5.12v12.75c-.41 28.41-.46 35.17 0 58.83v83.66h381.44a17.51 17.51 0 0 0 17.4-17.46V554.14a24.58 24.58 0 0 1 0-48.6V392a17.51 17.51 0 0 0-17.4-17.41H348.16a17.4 17.4 0 0 0-17.56 17.4v73.22a489.88 489.88 0 0 1 60.26-10.24l.51 5.12a481.84 481.84 0 0 0-62.77 10.96l-3.17.72v-79.77a22.32 22.32 0 0 1 6.65-15.98 22.58 22.58 0 0 1 16.08-6.55h535.86a22.68 22.68 0 0 1 22.53 22.53v118.47h-2.46a19.46 19.46 0 0 0 0 38.86h2.46V671.8a22.63 22.63 0 0 1-22.53 22.78z"/><path d="M847.97 662.58H497.25V512a38.86 38.86 0 0 0-13.92-30.72c-21.35-18.84-65.85-25.6-119-18.07l-2.9.4V424A22.63 22.63 0 0 1 384 401.46h463.97a22.63 22.63 0 0 1 22.58 22.53V640a22.63 22.63 0 0 1-22.58 22.58zm-345.6-5.12h345.6A17.46 17.46 0 0 0 865.28 640V423.99a17.46 17.46 0 0 0-17.46-17.41H384a17.46 17.46 0 0 0-17.46 17.4v33.5c53.3-6.92 98.1.25 120.17 19.7A43.83 43.83 0 0 1 502.37 512z"/><path d="M634.88 602.42h-29.13v-28h-32.31v-29.14h32v-10.7h-32v-29.13h15l-12.7-24.17h30.72l13.06 24.17h1.18l12.64-24.17h31.03l-12.7 24.01h15v29.14h-31.79v10.7h32v29.13h-32zm-24.01-5.12h18.89v-28h32v-18.9h-32v-20.94h32v-18.9h-18.38l12.5-24.16h-19.46l-12.75 24.01h-7.32l-12.7-24.01h-19.4l12.7 24.01h-18.39v18.9h32v20.94h-32v18.89h32.1zm-210.74-9.63c-34.77 0-60.06-5.12-77.26-14.84a18.53 18.53 0 0 1-9.27-16.08v-39.37a16.13 16.13 0 0 1 0-2.26h.36c.3-2.5.92-2.5 2.1-2.56h2.66v2.67c0 17.05 36.35 31.43 79.36 31.43s83.2-15.1 83.2-31.54v-2h5.12a17.3 17.3 0 0 1 0 2.31v41.27a18.53 18.53 0 0 1-9.01 15.97c-17.1 10.04-42.19 15-77.26 15zm-81.51-59.75v28.83a13.52 13.52 0 0 0 6.8 11.57c16.19 9.37 41.33 14.13 74.7 14.13s58.58-5.12 74.7-14.49a13.41 13.41 0 0 0 6.46-11.47v-29.13c-13.1 14.9-49.25 24.27-83.46 24.27-36.8.05-67.48-9.68-79.2-23.7z"/><path d="M399.97 542.72c-47.56 0-84.83-16.08-84.83-36.56s37.27-36.55 84.83-36.55 85.05 16.07 85.05 36.55-37.38 36.56-85.05 36.56zm0-68c-43.2 0-79.71 14.4-79.71 31.44s36.5 31.44 79.71 31.44 79.93-14.39 79.93-31.44-36.61-31.59-79.93-31.59zm0 166.1c-33.74 0-59.7-5.12-77.2-14.8a18.64 18.64 0 0 1-9.32-16.13v-39.16h5.12c0 10.75 39.57 20.94 81.4 20.94 38.81 0 81.46-10.96 81.46-20.94h5.12v38.86a18.48 18.48 0 0 1-9.26 16.02c-17 10.09-43.06 15.2-77.32 15.2zm-81.4-60.98v30.05a13.52 13.52 0 0 0 6.7 11.68c16.7 9.37 41.89 14.13 74.7 14.13s58.47-5.12 74.76-14.49a13.47 13.47 0 0 0 6.55-11.62v-30.16c-14.44 11.57-56.32 17.36-81.46 17.36-28.1 0-67.38-5.43-81.25-16.95z"/><path d="M400.13 693.91c-34.77 0-60.06-4.86-77.26-14.84a18.53 18.53 0 0 1-9.27-16.08v-39.17h5.12c0 10.8 39.58 21 81.4 21 37.49 0 78.5-10.25 81.31-19.92v-3.64h5.12v2.56a8.35 8.35 0 0 1 0 1.59v37.32a18.64 18.64 0 0 1-9.11 15.98c-17.15 10.24-42.24 15.2-77.31 15.2zm-81.41-60.98V663a13.52 13.52 0 0 0 6.7 11.67c16.19 9.37 41.33 14.13 74.7 14.13s58.58-4.86 74.7-14.49a13.41 13.41 0 0 0 6.46-11.57v-30.1c-14.6 11.52-56.01 17.3-81.3 17.3-28.11 0-67.18-5.42-81.26-17z"/><path d="M399.97 747.06c-34.2 0-60.2-5.12-77.26-14.85a18.53 18.53 0 0 1-9.26-16.08v-39.16h5.12c0 10.75 39.57 20.94 81.4 20.94 38.81 0 81.46-10.96 81.46-20.94h5.12v38.86a18.48 18.48 0 0 1-9.26 16.02c-17 10.09-43.06 15.2-77.32 15.2zm-81.4-60.98v30.05a13.52 13.52 0 0 0 6.7 11.68c16.29 9.37 41.42 14.13 74.7 14.13s58.47-4.86 74.76-14.49a13.47 13.47 0 0 0 6.55-11.62v-30.16c-14.44 11.57-56.32 17.36-81.46 17.36-28.1 0-67.38-5.43-81.25-16.95z"/><path d="M400.13 800.15c-34.77 0-60.06-4.86-77.26-14.84a18.53 18.53 0 0 1-9.27-16.08v-39.17h5.12c0 10.8 39.58 21 81.4 21 37.49 0 78.5-10.25 81.31-19.92v-3.64h5.12v2.56a8.35 8.35 0 0 1 0 1.59v37.32a18.64 18.64 0 0 1-9.11 15.98c-17.15 10.24-42.24 15.2-77.31 15.2zm-81.41-60.98v30.06a13.52 13.52 0 0 0 6.7 11.67c16.19 9.37 41.33 14.13 74.7 14.13s58.58-4.86 74.7-14.49a13.41 13.41 0 0 0 6.46-11.57v-30.1c-14.6 11.52-56.01 17.3-81.3 17.3-28.11 0-67.18-5.42-81.26-17zm-98.56-55.65c-34.2 0-60.26-5.12-77.47-14.7a18.64 18.64 0 0 1-9.26-16.07v-41.47a15.72 15.72 0 0 1 0-2.2h5.12v2.25c.61 17.05 36.7 31.18 79.36 31.18 43.67 0 83.45-15 83.45-31.44v-1.79h5.12a17.3 17.3 0 0 1 0 2.3v41.27a18.59 18.59 0 0 1-9.52 15.77c-16.64 9.88-42.55 14.9-76.8 14.9zm-81.61-59.44v28.67a13.57 13.57 0 0 0 6.7 11.67c16.39 9.27 41.58 13.98 74.91 13.98s58.37-4.76 74.44-14.18a13.57 13.57 0 0 0 6.76-11.57v-29.09c-13.1 14.9-49.25 24.27-83.45 24.27-36.92 0-67.64-9.78-79.36-23.75z"/><path d="M220.16 638.57c-47.62 0-84.89-16.08-84.89-36.56s37.27-36.56 84.89-36.56 85.04 16.08 85.04 36.56-37.37 36.56-85.04 36.56zm0-68c-43.26 0-79.77 14.39-79.77 31.44s36.5 31.44 79.77 31.44 79.92-14.4 79.92-31.44-36.6-31.44-79.92-31.44zm0 166.25c-34.3 0-60.36-5.12-77.31-14.85a18.64 18.64 0 0 1-9.27-16.08v-39.16h5.12c0 10.75 39.58 20.94 81.46 20.94 38.81 0 81.46-10.96 81.46-20.94h5.12v38.86a18.64 18.64 0 0 1-9.32 16.02c-17.05 10.09-43.06 15.2-77.26 15.2zm-81.61-60.98v30.05a13.57 13.57 0 0 0 6.7 11.68c16.18 9.37 41.32 14.13 74.76 14.13s58.52-4.86 74.65-14.49a13.47 13.47 0 0 0 6.8-11.62v-30.16c-14.43 11.57-56.31 17.36-81.45 17.36-28.27 0-67.59-5.43-81.46-16.95z"/><path d="M220.16 789.91c-34.3 0-60.31-5.12-77.31-14.59a18.64 18.64 0 0 1-9.27-16.08v-39.16h5.12c0 10.8 39.58 20.99 81.46 20.99 38.81 0 81.46-11 81.46-21h5.12v38.66a18.64 18.64 0 0 1-9.32 15.98c-17 10.08-42.9 15.2-77.26 15.2zm-81.92-60.72v30.05a13.57 13.57 0 0 0 6.7 11.68c16.19 9.16 41.33 13.82 74.76 13.87h.46c33.23 0 58.21-4.86 74.3-14.49a13.52 13.52 0 0 0 6.8-11.57v-29.95c-14.44 11.57-56.32 17.4-81.46 17.4-28.06 0-67.38-5.42-81.25-16.99z"/></svg>