<svg  viewBox="0 0 1024 1024"><path d="M732.16 858.57H291.84A22.63 22.63 0 0 1 269.26 836V224a22.63 22.63 0 0 1 22.58-22.58h90.73V256a17.46 17.46 0 0 0 17.4 17.46H608A17.46 17.46 0 0 0 625.46 256v-54.58h106.7A22.63 22.63 0 0 1 754.74 224v422.55h-2.56a77.47 77.47 0 1 0 0 154.88h2.56V836a22.63 22.63 0 0 1-22.58 22.58zM291.84 206.54A17.46 17.46 0 0 0 274.38 224v612a17.46 17.46 0 0 0 17.46 17.45h440.32A17.46 17.46 0 0 0 749.62 836V806.5a82.53 82.53 0 0 1 0-165.02V224a17.46 17.46 0 0 0-17.46-17.46H630.58V256A22.63 22.63 0 0 1 608 278.58H399.97A22.63 22.63 0 0 1 377.45 256v-49.46zm346.57 368.03H385.43v-21.15h253.14zm-248.01-5.12h242.9v-10.9H390.54zm248.01-70.86H385.43v-21.15h253.14zm-248.01-5.12h242.9v-10.91H390.54zm248.01-70.92H385.43v-21.1h253.14zm-248.01-5.12h242.9v-10.85H390.54z"/><path d="M600.01 262.55h-192a14.6 14.6 0 0 1-14.59-14.54v-46.59h72.09a38.55 38.55 0 0 1 76.8 0h72.09v46.6a14.54 14.54 0 0 1-14.39 14.53zm-201.47-56V248a9.47 9.47 0 0 0 9.47 9.42h192a9.47 9.47 0 0 0 9.27-9.42v-41.47H537.6v-2.56a33.43 33.43 0 0 0-66.87 0v2.56zm353.49 584.03a66.56 66.56 0 1 1 66.56-66.56 66.56 66.56 0 0 1-66.56 66.56zm0-128a61.44 61.44 0 1 0 61.44 61.44 61.44 61.44 0 0 0-61.44-61.44zm3.99 103.99h-8.04a6.6 6.6 0 0 1-6.55-6.56v-25.6h-25.6a6.6 6.6 0 0 1-6.56-6.55v-8.04a6.6 6.6 0 0 1 6.56-6.55h25.6v-25.6a6.6 6.6 0 0 1 6.55-6.6h8.04a6.6 6.6 0 0 1 6.55 6.6v25.6h25.6a6.6 6.6 0 0 1 6.56 6.55v8.04a6.6 6.6 0 0 1-6.56 6.55h-25.6v25.6a6.6 6.6 0 0 1-6.55 6.56zm-40.04-48.03a1.48 1.48 0 0 0-1.43 1.43v8.04a1.48 1.48 0 0 0 1.43 1.44h30.72v30.72a1.48 1.48 0 0 0 1.43 1.43h8.04a1.48 1.48 0 0 0 1.44-1.43v-30.72h30.72a1.48 1.48 0 0 0 1.43-1.44v-8.04a1.48 1.48 0 0 0-1.43-1.43H757.6v-30.72a1.48 1.48 0 0 0-1.44-1.48h-8.04a1.48 1.48 0 0 0-1.43 1.48v30.72z"/></svg>