<svg  viewBox="0 0 1024 1024"><path d="M600 888H160a20 20 0 0 1-20-20V256a20 20 0 0 1 20-20h88v52a20 20 0 0 0 20 20h208a20 20 0 0 0 20-20v-52h104a20 20 0 0 1 20 20v612a20 20 0 0 1-20 20zM160 244a12 12 0 0 0-12 12v612a12 12 0 0 0 12 12h440a12 12 0 0 0 12-12V256a12 12 0 0 0-12-12h-96v44a28 28 0 0 1-28 28H268a28 28 0 0 1-28-28v-44zm190.4 417.56a27.68 27.68 0 0 1-8.4-1.32 28 28 0 0 1-12.36-7.08l-.32-.32-69.32-70.4a28 28 0 0 1 0-39.28l11.36-11.52a28 28 0 0 1 39.6-.32l.28.32 38.68 39.28L451.24 468a28 28 0 0 1 39.6.32l11.32 11.52a28 28 0 0 1 0 39.28l-132 134.28a28 28 0 0 1-19.76 8.16zm-59.16-130.24a20 20 0 0 0-14.16 5.92l-11.32 11.56a20 20 0 0 0 0 28l69.28 70.4a20.4 20.4 0 0 0 9.2 5.32 20 20 0 0 0 20-4.8l132-134.2a20 20 0 0 0 0-28L484.88 474a20 20 0 0 0-28.28 0L349.96 582.36l-44.36-45.12a20.44 20.44 0 0 0-14.36-5.92z"/><path d="M468 292H276a12 12 0 0 1-12-12v-44h72a36 36 0 0 1 72 0h72v44a12 12 0 0 1-12 12zm-196-48v36a4 4 0 0 0 4 4h192a4 4 0 0 0 4-4v-36h-72v-8a28 28 0 0 0-56 0v8zm100 12a20 20 0 1 1 20-20 20 20 0 0 1-20 20zm0-32a12 12 0 1 0 12 12 12 12 0 0 0-12-12zM775.72 744h-87.36V364H776zm-79.36-8h71.36l.28-364h-71.64zM776 348.76l-87.64-.76v-32a20 20 0 0 1 20-20H756a20 20 0 0 1 20 20zM696.36 340l71.56.68V316a12 12 0 0 0-12-12h-47.56a12 12 0 0 0-12 12zM732 820.48a12 12 0 0 1-7.6-2.68L688 788v-28h88v28l-36.44 29.8a12 12 0 0 1-7.56 2.68zm-36-36.28l33.48 27.4a4 4 0 0 0 5.08 0l33.48-27.4V768H696zM348.28 641.72a12 12 0 0 1-8.56-3.6l-62.52-64a12 12 0 0 1 0-16.76l8.56-8.76a12 12 0 0 1 17-.2L348 594.88l112.56-110.64a11.28 11.28 0 0 1 8.56-3.44 12 12 0 0 1 8.44 3.6l8.56 8.76a12 12 0 0 1 0 16.92l-129.44 128.2a12 12 0 0 1-8.4 3.44zm-12-18.44l9.04 9.24a4 4 0 0 0 5.48.2l.4-.36 129.2-128a4 4 0 0 0 0-5.64L472 490a4 4 0 0 0-2.84-1.2 4 4 0 0 0-2.84 1.12l-2.8-2.84 2.8 2.88L348 606.2l-50.84-52a4 4 0 0 0-5.72 0l-8.56 8.76a4 4 0 0 0 0 5.6l53.12 54.4-2.56 3.12z"/></svg>