<svg  viewBox="0 0 1024 1024"><path d="M389.6 637.44L182.44 430.32a24 24 0 0 1 0-33.96 24.4 24.4 0 0 1 9.56-5.8l626.96-209.04a24 24 0 0 1 17.92 1.08l5.12 2.44zm436.96-449.16a15.68 15.68 0 0 0-5.04.84L194.36 398.16a16 16 0 0 0-6.28 4 16 16 0 0 0 0 22.6L389.6 626.12l437.8-437.8zM616.64 857.12a23.68 23.68 0 0 1-7.6-1.28 24.32 24.32 0 0 1-9.4-5.76L394.36 644.76 846.6 192.48l2 6.32a24 24 0 0 1 0 14.72L639.4 840.68a24 24 0 0 1-22.76 16.44zm-211-212.36L605.32 844.4a16 16 0 0 0 6.24 4 16 16 0 0 0 20.24-10.12L840.84 211a15.68 15.68 0 0 0 .52-1.96z"/></svg>