<svg  viewBox="0 0 1024 1024"><path d="M499 758.22h-12.65c-122.37-38.25-193.03-87.86-209.92-147.5s-24.53-160.16-22.99-300.6v-2.46H256a791.35 791.35 0 0 0 122.27-13.06c34.76-6.65 59.54-21.09 108.95-49.81l9.27-5.12 2.91 4.14c-2.45 2.05-60.51 50.18-78.18 59.2-31.33 15.81-71.68 26.46-120.11 31.63-3.38 113.77 0 193.13 9.42 235.88 14.28 63.28 25.6 85 83.04 128.56a523.47 523.47 0 0 0 94.98 54.58zM258.36 312.78c-1.39 138.65 6.24 238.39 22.78 296.6 14.8 51.97 72.3 96.31 171.21 132.1a447.39 447.39 0 0 1-62.05-38.5c-58.88-44.55-70.4-66.56-84.94-131.49-9.78-43.46-13-124-9.53-239.4v-2.26h2.2c48.75-5.12 89.3-15.36 120.58-31.33 9.73-5.12 33.23-23.1 51.76-37.9-37.78 21.77-60.67 33.44-91.44 39.33a789.4 789.4 0 0 1-120.42 12.7zm292.86 445.44v-5.12l1.48-1.02a535.3 535.3 0 0 0 94.52-54.38c57.55-43.57 68.81-65.28 83.05-128.56 9.67-42.8 12.85-122.11 9.47-235.83-59.4-3.58-105.47-13.41-136.91-29.28-16.9-8.6-41.83-29.44-74.04-62l3.28-3.9c46.49 33.23 88.17 53.4 123.29 60.16a589.26 589.26 0 0 0 129.08 8.24h2.66v2.67c1.64 140.39-6.04 241.46-22.79 300.44S676.71 719 554.4 757.3zm1.38-500.07c22.17 21 39.78 34.82 52.53 41.27 31.23 15.77 77.42 25.6 137.27 28.93h2.36v2.35c3.48 115.4.25 195.94-9.58 239.46-14.54 64.72-26.06 87.04-84.94 131.48a457.42 457.42 0 0 1-63.23 39.07c99.68-35.84 157.7-80.54 172.5-132.71 16.53-58.16 24.16-157.85 22.67-296.35a591.82 591.82 0 0 1-127.59-8.44c-29.95-5.64-64.15-20.8-101.99-45.06z"/><path d="M523.32 747.83l-1.08-.31c-103.48-44.24-164.81-93.24-182.37-145.56s-24.48-140.5-21.25-263.07v-2.45h2.46a268.7 268.7 0 0 0 109-25.25 244.58 244.58 0 0 0 83.97-63.02l2.15-2.46 1.9 2.66a189.44 189.44 0 0 0 76.8 62.82c32.81 15.36 75.41 23.97 126.61 25.2h2.46v2.45c3.68 133.12-5.84 224.62-28.26 272.03s-80.29 93.54-171.32 136.65zM323.64 341.45c-3.08 120.73 3.99 207.77 21.09 258.77s76.8 98.5 178.43 142.03c89.4-42.3 145.77-87.04 167.68-133.48s31.28-136.35 27.8-267.32c-50.84-1.48-93.28-10.24-126.2-25.6a195.28 195.28 0 0 1-76.8-61.9 250.57 250.57 0 0 1-83.46 61.9 273.46 273.46 0 0 1-108.5 25.6zm238.33 220.52l-46.08-24.22-45.72 24.07 8.65-49.51-36.76-39.99h52.22L516 420.25l21.61 52.07h52.79l-39.68 39.99zm-108.13-84.53l30.72 33.28-7.32 41.73 38.9-20.48 38.61 20.48-9.42-41.58 33.03-33.28h-43.93l-18.28-43.93-18.28 43.93z"/></svg>