<svg  viewBox="0 0 1024 1024"><path d="M566.04 888.2L552.8 840h-81.48l-14.04 48-3.48-.56a376.96 376.96 0 0 1-82.72-22.56l-3.28-1.32L380.24 816l-70.56-40.76-35.08 33.52-2.72-2.24a381.6 381.6 0 0 1-60-61.36l-2.16-2.76 33.08-33.56-40.72-70.52-44.56 10.88-1.28-3.32a380.24 380.24 0 0 1-20.92-83.32l-.44-3.44 42.48-11.72v-81.44l-40.96-12 .56-3.48a376.44 376.44 0 0 1 23.4-82.76l1.32-3.2 39.72 10.32 40.76-70.52-27.6-28.88 2.24-2.72a380.56 380.56 0 0 1 61.4-60.28l2.76-2.16 27.56 27.16 70.52-40.72-9.08-37.32 3.24-1.24A376.56 376.56 0 0 1 456.44 136l3.48-.52L469.96 172h81.48l10.72-36.72 3.44.48a378.96 378.96 0 0 1 83.32 21.64l3.32 1.32-9.72 37.28 70.52 40.72 28.76-27.44 2.72 2.08a382.24 382.24 0 0 1 61.64 60l2.28 2.76L780 303.16l40.72 70.52 41.32-10.08 1.32 3.16a378.44 378.44 0 0 1 23.6 82.68l.6 3.56-42.12 11.6v81.44l43.8 12.8-.44 3.4a379.52 379.52 0 0 1-20.8 83.32l-1.28 3.36-45.28-11.76-40.72 70.52 33.44 34.96-2.12 2.72a383.56 383.56 0 0 1-60 61.36l-2.8 2.24-34.88-34.4-70.56 40.72 12 48.68-3.24 1.28a377.64 377.64 0 0 1-82.76 22.44zM465.32 832h93.56L572 879.2a370.24 370.24 0 0 0 74.28-20l-11.68-47.72 81.04-46.8 34.12 33.68a376.84 376.84 0 0 0 53.84-55.08L770.8 709l46.64-81 44 11.48a371.28 371.28 0 0 0 18.68-74.76L837.36 552v-93.52l41-11.28a367.44 367.44 0 0 0-21.2-74.2l-40.44 9.88-46.76-81 27.72-28A372.8 372.8 0 0 0 742.32 220l-28 26.8-81.08-46.8 9.48-36.32A371.12 371.12 0 0 0 568 144l-10.44 36H464l-9.8-35.52a369.88 369.88 0 0 0-74.68 20l8.84 36.32-81.12 46.64-26.88-26.52a375.04 375.04 0 0 0-55.12 54.12l26.84 28-46.8 80.96-38.84-10a371 371 0 0 0-21 74.28l40 11.68v93.56l-41.6 11.44a366.16 366.16 0 0 0 18.76 74.76l43.52-10.6 46.68 81L220.4 743a374.56 374.56 0 0 0 53.8 55.08l34.28-32.76L389.52 812l-12 46.8a372 372 0 0 0 74.24 20.24zM512 688a176 176 0 1 1 176-176 176.2 176.2 0 0 1-176 176zm0-344a168 168 0 1 0 168 168 168 168 0 0 0-168-168z"/><path d="M512 632a116 116 0 1 1 116-116 116 116 0 0 1-116 116zm0-224a108 108 0 1 0 108 108 108 108 0 0 0-108-108z"/></svg>