<svg  viewBox="0 0 1024 1024"><path d="M160 883.64a20 20 0 0 1-20-20V160a20 20 0 0 1 20-20h704a20 20 0 0 1 20 20v92H264.52A12.56 12.56 0 0 0 252 264.52v530.96A12.56 12.56 0 0 0 264.52 808h20.44l-114.24 72.52a20 20 0 0 1-10.72 3.12zM160 148a12 12 0 0 0-12 12v703.64a12 12 0 0 0 12 12 12.2 12.2 0 0 0 6.44-1.88l92.32-58.6A20.56 20.56 0 0 1 244 795.48V264.52A20.52 20.52 0 0 1 264.52 244H876v-84a12 12 0 0 0-12-12z"/><path d="M868 885.28a20 20 0 0 1-10.72-3.12l-142.6-90.56c-4-2.48-15.28-10-20.4-10H288a20 20 0 0 1-20-20V288a20 20 0 0 1 20-20h580a20 20 0 0 1 20 20v577.28a20 20 0 0 1-20 20zM288 276a12 12 0 0 0-12 12v473.6a12 12 0 0 0 12 12h406.28c5.28 0 12.68 3.36 24.72 11.28l142.56 90.52a12 12 0 0 0 6.44 1.88 12 12 0 0 0 12-12V288a12 12 0 0 0-12-12zm396 354a14 14 0 0 1-14-14V428a14 14 0 0 1 28 0v188a14 14 0 0 1-14 14zm0-208a6 6 0 0 0-6 6v188a6 6 0 0 0 12 0V428a6 6 0 0 0-6-6zM572 630a14 14 0 0 1-14-14V428a14 14 0 0 1 28 0v188a14 14 0 0 1-14 14zm0-208a6 6 0 0 0-6 6v188a6 6 0 0 0 12 0V428a6 6 0 0 0-6-6zM460 630a14 14 0 0 1-14-14V428a14 14 0 0 1 28 0v188a14 14 0 0 1-14 14zm0-208a6 6 0 0 0-6 6v188a6 6 0 0 0 12 0V428a6 6 0 0 0-6-6z"/></svg>