<svg  viewBox="0 0 1024 1024"><path d="M588 640H336l-.28-3.68a74 74 0 0 0-147.6 0L188 640h-44V536h444zm-244.6-8H580v-88H152v88h28.6a82 82 0 0 1 162.8 0zM588 520H144V268h444zm-436-8h428V276H152zM892 640h-68l-.28-3.68a74 74 0 0 0-147.6 0L676 640h-72V520h288zm-60.6-8H884V528H612v104h56.6a82 82 0 0 1 162.8 0zm56-122.6L884 504H604V380h208.72l76.68 117.68h16zM612 496h266.76L808.4 388H612z"/><path d="M262 704a62 62 0 1 1 62-62 62.04 62.04 0 0 1-62 62zm0-116a54 54 0 1 0 54 54 54.08 54.08 0 0 0-54-54zM750 704a62 62 0 1 1 62-62 62.04 62.04 0 0 1-62 62zm0-116a54 54 0 1 0 54 54 54.08 54.08 0 0 0-54-54z"/></svg>