<svg  viewBox="0 0 1024 1024"><defs><style/></defs><path d="M360 132v76a20 20 0 0 0 20 20h268a20 20 0 0 0 20-20v-76h208a20 20 0 0 1 20 20v669.56a16 16 0 0 0-11.64-15.4q-81.88-23.28-81.88-58.96v-78.92c0-12.28-.2-13 4.6-16.76a122.32 122.32 0 0 0 51.44-98.96c0-68.8-58.68-124.56-131.12-124.56s-131.12 55.76-131.12 124.56a122.04 122.04 0 0 0 48 96.28h.24c.48.4.96.72 1.4 1.04l.4.32c6.56 4.96 6.44 5.4 6.44 17.88v76.56q0 33.88-74.16 60.8a16 16 0 0 0-10.52 15.04V896H152a20 20 0 0 1-20-20V152a20 20 0 0 1 20-20z"/><path d="M376 132h272v60a20 20 0 0 1-20 20H396a20 20 0 0 1-20-20z"/><path d="M584 872h303.76v20a4 4 0 0 1-4 4H588a4 4 0 0 1-4-4zM654.64 641.08c-26.48-21.84-44-54.6-44-89.6 0-61.96 55.4-111.48 117-111.48S845 492.24 845 554.2c0 37.88-20.84 72-51.12 93-4.4 3.16-5.8 3.76-5.8 8.48V744q0 52.8 84 69.4a20 20 0 0 1 16 19.64v23.16H584v-22.68a20 20 0 0 1 12.24-18.44Q668 784.8 668 746.4v-90.72c0-6.28-4.84-7.04-13.36-14.6z"/></svg>