<svg  viewBox="0 0 1024 1024"><path d="M144 256l370.36-111.2L888 256v48H144v-48zm-4 60h744v508H140z"/><path d="M244.64 559.1l150.52-21.16 21.15 150.52-150.52 21.15zM251.72 736.92l193.92-27.24a12 12 0 0 1 13.52 10.2l1.12 8a12 12 0 0 1-10.2 13.56L264 767.52a34.04 34.04 0 0 0 0-3.52 36 36 0 0 0-12.28-27.08zm-42.12-4L168 436.44l31.6-4.44 42 298.64A36.6 36.6 0 0 0 228 728a36 36 0 0 0-18.4 5.04zM196 766a30 30 0 1 0 60 0 30 30 0 1 0-60 0z"/><path d="M136 440.92l63.28-8.92 4.44 31.68-63.4 8.92a12 12 0 0 1-13.52-10.2l-1.12-8A12 12 0 0 1 136 440.92z"/><path d="M350.04 612.64l-6.36-8a9.96 9.96 0 0 1 1.96-13.96A10.32 10.32 0 0 1 360 592.6l16 20.6a8.8 8.8 0 0 1 .84 1.28 8.24 8.24 0 0 1 1.32 5.08 6.96 6.96 0 0 1 0 1.56l-6.28 25.32a10.32 10.32 0 0 1-12.36 7.56 9.96 9.96 0 0 1-7.44-12l2.28-9.04-62.88 9.04a10.28 10.28 0 0 1-11.48-8.56 10.08 10.08 0 0 1 8.4-11.56z"/></svg>