<svg  viewBox="0 0 1024 1024"><path d="M351.24 404h335.28Q768 404 768 485.48v5.04Q768 572 686.52 572H351.24q-81.48 0-81.48-81.48v-5.04q0-81.48 81.48-81.48z"/><path d="M414.52 572a130 130 0 0 1 .52-168h28a130 130 0 0 0-.52 168z"/><path d="M269.76 480v20h-37c-2.72 0-8.64-.68-10.76 2.4a17.04 17.04 0 0 0-2 9.6v189.24h-20V512a37.92 37.92 0 0 1 7.12-22.44c5.6-7.6 14.28-9.4 23.44-9.4zM756 480v20h37c2.72 0 8.68-.68 10.76 2.4a17.16 17.16 0 0 1 2 9.44v189.24h20V512a37.88 37.88 0 0 0-7.08-22.44c-5.64-7.6-14.28-9.4-23.48-9.4z"/></svg>