<svg  viewBox="0 0 1024 1024"><path d="M752 644a80 80 0 0 0 0 160v32a20 20 0 0 1-20 20H292a20 20 0 0 1-20-20V224a20 20 0 0 1 20-20h88v52a20 20 0 0 0 20 20h208a20 20 0 0 0 20-20v-52h104a20 20 0 0 1 20 20zM388 404v16h248v-16zm0 76v16h248v-16zm0 76v16h248v-16z"/><path d="M468 204a36 36 0 0 1 72 0h72v44a12 12 0 0 1-12 12H408a12 12 0 0 1-12-12v-44z"/><path d="M752 788a64 64 0 1 1 64-64 64 64 0 0 1-64 64zm-8-72h-28a4 4 0 0 0-4 4v8a4 4 0 0 0 4 4h28v28a4 4 0 0 0 4 4h8a4 4 0 0 0 4-4v-28h28a4 4 0 0 0 4-4v-8a4 4 0 0 0-4-4h-28v-28a4 4 0 0 0-4-4h-8a4 4 0 0 0-4 4z"/></svg>