<svg  viewBox="0 0 1024 1024"><path d="M728 776a60.92 60.92 0 0 1-29.16-7.76c-.44-.24-21.6-11.64-27.48-14.64a193.76 193.76 0 0 0-27.08-11.68c-33.92-11.08-64-3.8-100 27.6a63.56 63.56 0 0 1-12.44 8.64c-22.44 11.6-44 4.92-81.88-19.72s-44.28-28-59.72-28c-19.4 0-32.8 6.24-54.76 21.68l-4.32 3.04c-1.64 1.16-2.92 2.08-4.2 2.92-12.72 8.72-21.08 12.32-30.28 12.32h-4.64a268.76 268.76 0 0 1-39.52-84 72.24 72.24 0 0 0 44.56 14.64c13.92 0 25.36-4.96 40.96-15.64l4.4-3.04 4.28-3.04c19-13.36 29.52-18.28 44-18.28 9.8 0 16.56 3.68 49.48 25 19.6 12.72 32.52 19.72 46.68 24a68.56 68.56 0 0 0 54.12-3.56 81.2 81.2 0 0 0 16.2-11.2c30.96-27.16 54.36-32.76 81.72-23.8A169 169 0 0 1 663.24 682c5.68 2.92 26.64 14.2 27.24 14.52 26.44 14 52.96 13.2 78.84-1.76A268 268 0 0 1 728 776zm-14.24 17.56A269.04 269.04 0 0 1 306 788.32c10.04-1.8 19.56-6.64 31.52-14.8l4.36-3.04 4.32-3.08c19-13.36 29.52-18.24 44-18.24 9.8 0 16.56 3.64 49.48 25 19.6 12.68 32.48 19.68 46.68 24a68.56 68.56 0 0 0 54.12-3.52 81.44 81.44 0 0 0 16.2-11.24c30.96-27.12 54.36-32.76 81.72-23.8a169.72 169.72 0 0 1 24.32 10.56c5.68 2.88 26.64 14.16 27.24 14.52a87.44 87.44 0 0 0 23.68 8.72zM776 666.48c-26.24 22.84-51.44 26.92-77.04 13.36-.44-.24-21.6-11.64-27.48-14.64a189.12 189.12 0 0 0-27.08-11.68c-33.92-11.08-64-4-100 27.56a61.88 61.88 0 0 1-12.44 8.64c-22.44 11.64-44 4.92-81.88-19.68s-44.28-28-59.72-28c-19.4 0-32.8 6.28-54.76 21.72l-4.32 3.04-4 2.92c-12.76 8.68-21.12 12.32-30.32 12.32-19.16 0-34.64-8.24-47.2-25.36a9.4 9.4 0 0 0-4-3.2 272.92 272.92 0 0 1-2.68-38.16q0-12 1-23.56c18.24 18.52 38 28 59.12 28a54.16 54.16 0 0 0 28.8-9.68A216.72 216.72 0 0 0 356 592c21.32-17.24 32.56-23.6 45.48-23.6 8.32 0 13.32 3.32 41.6 26.04 20.32 16.32 34.16 24.84 50.48 28.6 21.96 5.04 43.48-1.2 64.92-20.32 36-32.28 56.6-37 80.8-25.16a177.24 177.24 0 0 1 15.72 9.08s13.72 8.84 18.08 11.48c3.4 2.12 6.6 4 9.76 5.8 32.56 18.32 65.32 11.56 96.48-18.8a271.24 271.24 0 0 1-3.2 81.36z"/><path d="M590.2 375.76a80.52 80.52 0 0 1 11.48 41.52c0 46.32-39.08 84-87.32 84s-87.32-37.52-87.32-84a81.04 81.04 0 0 1 12.88-44l65.04-122.16a12 12 0 0 1 21.28 0zm-144.2 55c6 28.44 23 47.28 50.6 56a4.56 4.56 0 0 0 5.72-2.72 4.2 4.2 0 0 0-2.88-5.44c-24.48-7.72-39.2-24-44.56-49.52a4.52 4.52 0 0 0-5.32-3.36 4.36 4.36 0 0 0-3.56 5.04z"/></svg>