<?xml version="1.0" standalone="no"?><!DOCTYPE svg PUBLIC "-//W3C//DTD SVG 1.1//EN" "http://www.w3.org/Graphics/SVG/1.1/DTD/svg11.dtd"><svg class="icon" width="200px" height="200.00px" viewBox="0 0 1024 1024" version="1.1" xmlns="http://www.w3.org/2000/svg"><path fill="#f4ea2a" d="M852 876H176a24 24 0 0 1-24-24V188a24 24 0 0 1 24-24h676a24 24 0 0 1 24 24v664a24 24 0 0 1-24 24zM176 172a16 16 0 0 0-16 16v664a16 16 0 0 0 16 16h676a16 16 0 0 0 16-16V188a16 16 0 0 0-16-16z m304 688H192a24 24 0 0 1-24-24V204a24 24 0 0 1 24-24h644a24 24 0 0 1 24 24v631.6a24 24 0 0 1-24 24h-351.56a27.36 27.36 0 0 1-4.44 0.4zM192 188a16 16 0 0 0-16 16v632a16 16 0 0 0 16 16h288a18.24 18.24 0 0 0 3.28-0.32h352.8a16 16 0 0 0 16-16V204a16 16 0 0 0-16-16z"  /><path fill="#f4ea2a" d="M816 836h-288V204h288a20 20 0 0 1 20 20v592a20 20 0 0 1-20 20z m-280-8h280a12 12 0 0 0 12-12V224a12 12 0 0 0-12-12h-280z"  /><path fill="#f4ea2a" d="M780 492h-188v-48h188z m-180-8h172v-32h-172zM780 584h-188v-48h188z m-180-8h172v-32h-172zM509.56 504H212a20 20 0 0 1-20-20V224a20 20 0 0 1 20-20h297.56zM212 212a12 12 0 0 0-12 12v260a12 12 0 0 0 12 12h289.56V212zM509.56 836H212a20 20 0 0 1-20-20v-276a20 20 0 0 1 20-20h297.56zM212 528a12 12 0 0 0-12 12v276a12 12 0 0 0 12 12h289.56v-300z"  /><path fill="#f4ea2a" d="M376 456H328V384H256V336h72V268h48v68h68v48H376z m-40-8h32V376h68v-32H368V276h-32v68H264v32h72z"  /><path fill="#f4ea2a" d="M444 704H256v-48h188z m-180-8h172v-32H264z"  /></svg>