<?xml version="1.0" standalone="no"?><!DOCTYPE svg PUBLIC "-//W3C//DTD SVG 1.1//EN" "http://www.w3.org/Graphics/SVG/1.1/DTD/svg11.dtd"><svg class="icon" width="200px" height="200.00px" viewBox="0 0 1024 1024" version="1.1" xmlns="http://www.w3.org/2000/svg"><path fill="#f4ea2a" d="M686.5408 574.6688H351.232c-55.7568 0-84.0192-28.2624-84.0192-84.0704v-5.12c0-55.7568 28.2624-84.0192 84.0192-84.0192h335.3088c55.7568 0 84.0192 28.2624 84.0192 84.0192v5.12c0 55.808-28.16 84.0704-84.0192 84.0704zM351.232 406.5792c-53.0944 0-78.8992 25.6-78.8992 78.8992v5.12c0 53.1456 25.6 78.9504 78.8992 78.9504h335.3088c53.0944 0 78.8992-25.6 78.8992-78.9504v-5.12c0-53.0944-25.6-78.8992-78.8992-78.8992z"  /><path fill="#f4ea2a" d="M448.2048 574.5664h-34.6624l-0.768-0.9216a132.0448 132.0448 0 0 1 0.512-171.264l0.768-0.9216h34.7136l-3.584 4.1984a127.0784 127.0784 0 0 0-0.512 164.7104z m-32.3072-5.12h21.4528a132.096 132.096 0 0 1 0.512-162.8672h-21.4528a127.0272 127.0272 0 0 0-0.512 162.8672zM222.72 704h-25.2928V512A40.4992 40.4992 0 0 1 204.8 488.0896a29.9008 29.9008 0 0 1 25.6-10.24h41.7792v25.1392h-40.96c-1.9968 0-6.1952 0-7.2192 1.28a14.592 14.592 0 0 0-1.28 7.7312z m-20.1728-5.12h15.0528V512a19.3024 19.3024 0 0 1 2.1504-10.8032c2.7136-4.0448 8.3456-3.8912 11.7248-3.7888h35.84v-14.848h-36.6592c-10.496 0-17.1008 2.56-21.4016 8.3968a35.328 35.328 0 0 0-6.7072 21.0432zM840.3456 703.8464h-25.1392V512a15.36 15.36 0 0 0-1.6896-8.2944c-0.8704-1.2288-5.12-1.0752-7.0656-1.024h-40.96v-25.2416h41.7792a29.7984 29.7984 0 0 1 25.6 10.24 40.3456 40.3456 0 0 1 7.6288 23.9616z m-20.0192-5.12h14.8992V512a35.2768 35.2768 0 0 0-6.656-20.9408c-4.2496-5.7856-10.8544-8.3456-21.3504-8.3456h-36.6592v14.8992h35.84c3.3792 0 9.0112-0.256 11.5712 3.5328a20.0704 20.0704 0 0 1 2.4576 11.1104z"  /></svg>