<?xml version="1.0" standalone="no"?><!DOCTYPE svg PUBLIC "-//W3C//DTD SVG 1.1//EN" "http://www.w3.org/Graphics/SVG/1.1/DTD/svg11.dtd"><svg class="icon" width="200px" height="200.00px" viewBox="0 0 1024 1024" version="1.1" xmlns="http://www.w3.org/2000/svg"><path fill="#f4ea2a" d="M262.1952 712.4992l-21.8624-155.5968 155.5456-21.8624 21.8624 155.5968z m-16.0768-151.2448l20.48 145.4592 145.408-20.48-20.48-145.4592zM225.9968 798.72a32.5632 32.5632 0 1 1 32.5632-32.5632 32.5632 32.5632 0 0 1-32.5632 32.5632z m0-60.0064a27.4432 27.4432 0 1 0 27.4432 27.4432 27.4944 27.4944 0 0 0-27.4432-27.5968z"  /><path fill="#f4ea2a" d="M886.5792 826.5728H137.4208V470.3232h2.304l34.9184-5.12 37.0176 263.8848a38.0416 38.0416 0 0 1 16.3328-3.6352 38.1952 38.1952 0 0 1 10.24 1.4336l-40.96-291.84-59.904 8.448v-130.048h749.2096z m-744.0384-5.12h738.9184V318.5664H142.5408v118.8352l58.9824-8.2944v0.512l0.5632 2.048 42.5984 303.0016-4.096-1.6384a33.4848 33.4848 0 0 0-12.6464-2.4576 33.3824 33.3824 0 0 0-17.1008 4.6592l-3.84 2.304v-4.5056L170.24 471.04l-27.6992 3.8912zM261.12 770.5088v-3.1232-3.2768a33.4336 33.4336 0 0 0-11.4176-25.2416l-4.1984-3.6864 199.68-28.0576a14.5408 14.5408 0 0 1 16.384 12.3904l1.1264 7.9872a14.592 14.592 0 0 1-12.1344 16.4864z m-4.1472-31.744a38.5536 38.5536 0 0 1 9.4208 25.2416v0.5632l183.1424-25.6a9.472 9.472 0 0 0 7.9872-10.7008l-1.1264-7.9872a9.472 9.472 0 0 0-10.5984-8.0384zM890.5728 306.5856H141.4144V254.1056l372.9408-111.9744h0.7168l375.5008 111.7696z m-744.0384-5.12h738.9184v-43.5712L514.3552 147.456 146.5344 257.8944z"  /><path fill="#f4ea2a" d="M361.8304 656.8448a10.752 10.752 0 0 1-2.8672-0.3584 12.4416 12.4416 0 0 1-9.3696-15.0016l1.3312-5.4272L291.84 644.5568a12.8512 12.8512 0 0 1-14.3872-10.7008 12.5952 12.5952 0 0 1 2.2528-9.4208 12.4416 12.4416 0 0 1 8.2432-5.12l57.344-8.6016-3.6352-4.5056a12.5952 12.5952 0 0 1 2.4064-17.408 13.0048 13.0048 0 0 1 17.9712 2.4064l15.9744 20.48a11.264 11.264 0 0 1 1.0752 1.6384 10.5984 10.5984 0 0 1 1.6384 6.4512 8.9088 8.9088 0 0 1 0 1.6896l-6.3488 25.6a12.9536 12.9536 0 0 1-12.544 9.7792z m-4.0448-27.0848l-3.2256 12.7488a7.424 7.424 0 0 0 5.5296 8.9088 7.8336 7.8336 0 0 0 9.3184-5.6832l6.2464-25.6a5.12 5.12 0 0 0 0-0.6656 6.1952 6.1952 0 0 0-0.9216-3.9424 5.7344 5.7344 0 0 0-0.6656-1.0752l-16.0256-20.48a7.7824 7.7824 0 0 0-10.8032-1.4336 7.3728 7.3728 0 0 0-1.4848 10.24L354.816 614.4l-66.048 10.24a7.5264 7.5264 0 0 0-6.2464 8.6016 7.6288 7.6288 0 0 0 8.6016 6.4zM207.0528 737.536v-4.5056L170.24 471.04l-29.5424 4.1472a14.592 14.592 0 0 1-16.4352-12.3904l-1.1264-7.9872a14.592 14.592 0 0 1 12.0832-16.3328h0.768l65.536-9.2672 42.9568 305.5616-4.096-1.6384a33.4848 33.4848 0 0 0-12.6464-2.4576 33.3824 33.3824 0 0 0-17.1008 4.6592z m-32.4096-272.3328l37.0176 263.8848a38.0416 38.0416 0 0 1 16.3328-3.6352 38.1952 38.1952 0 0 1 10.24 1.4336l-40.96-291.84-60.928 8.3968A9.5232 9.5232 0 0 0 128 454.0416l1.1264 7.9872a9.472 9.472 0 0 0 10.6496 8.0384zM261.12 770.5088v-3.1232-3.2768a33.4336 33.4336 0 0 0-11.4176-25.2416l-4.1984-3.6864 199.68-28.0576a14.5408 14.5408 0 0 1 16.384 12.3904l1.1264 7.9872a14.592 14.592 0 0 1-12.1344 16.4864z m-4.1472-31.744a38.5536 38.5536 0 0 1 9.4208 25.2416v0.5632l183.1424-25.6a9.472 9.472 0 0 0 7.9872-10.7008l-1.1264-7.9872a9.4208 9.4208 0 0 0-10.5984-8.0384z"  /></svg>