<?xml version="1.0" standalone="no"?><!DOCTYPE svg PUBLIC "-//W3C//DTD SVG 1.1//EN" "http://www.w3.org/Graphics/SVG/1.1/DTD/svg11.dtd"><svg class="icon" width="200px" height="200.00px" viewBox="0 0 1024 1024" version="1.1" xmlns="http://www.w3.org/2000/svg"><path fill="#f4ea2a" d="M884.0192 694.5792h-386.56v-88.7296c-0.6144-23.6544-0.5632-30.72 0-58.9312v-12.8h5.12v12.7488c-0.4096 28.416-0.4608 35.1744 0 58.8288v83.6608h381.44a17.5104 17.5104 0 0 0 17.408-17.4592v-117.76a24.576 24.576 0 0 1 0-48.5888V391.9872a17.5104 17.5104 0 0 0-17.408-17.408H348.16a17.408 17.408 0 0 0-17.5616 17.408v73.216a489.8816 489.8816 0 0 1 60.2624-10.24l0.512 5.12A481.8432 481.8432 0 0 0 328.6016 471.04l-3.1744 0.7168V391.9872a22.3232 22.3232 0 0 1 6.656-15.9744A22.5792 22.5792 0 0 1 348.16 369.4592h535.8592a22.6816 22.6816 0 0 1 22.528 22.528V510.464h-2.4576a19.456 19.456 0 0 0 0 38.8608h2.4576v122.4704a22.6304 22.6304 0 0 1-22.528 22.784z"  /><path fill="#f4ea2a" d="M847.9744 662.5792h-350.72V512a38.8608 38.8608 0 0 0-13.9264-30.72c-21.3504-18.8416-65.8432-25.6-118.9888-18.0736l-2.9184 0.4096v-39.6288a22.6304 22.6304 0 0 1 22.5792-22.528h463.9744a22.6304 22.6304 0 0 1 22.5792 22.528V640a22.6304 22.6304 0 0 1-22.5792 22.5792z m-345.6-5.12h345.6A17.4592 17.4592 0 0 0 865.28 640V423.9872a17.4592 17.4592 0 0 0-17.4592-17.408H384a17.4592 17.4592 0 0 0-17.4592 17.408v33.4848C419.84 450.56 464.64 457.728 486.7072 477.184a43.8272 43.8272 0 0 1 15.6672 34.816z"  /><path fill="#f4ea2a" d="M634.88 602.4192h-29.1328v-28.0064H573.44v-29.1328h32v-10.7008H573.44v-29.1328h15.0016L575.744 481.28h30.72l13.056 24.1664h1.1776L633.344 481.28h31.0272l-12.6976 24.0128h15.0016v29.1328H634.88v10.7008h32v29.1328H634.88z m-24.0128-5.12H629.76v-28.0064h32v-18.8928H629.76v-20.9408h32v-18.8928h-18.3808L655.872 486.4h-19.456l-12.7488 24.0128h-7.3216L603.648 486.4h-19.4048l12.6976 24.0128H578.56v18.8928h32v20.9408H578.56v18.8928h32.1024zM400.128 587.6736c-34.7648 0-60.0576-5.12-77.2608-14.848a18.5344 18.5344 0 0 1-9.2672-16.0768v-20.7872-18.5856a16.128 16.128 0 0 1 0-2.2528h0.3584c0.3072-2.5088 0.9216-2.5088 2.0992-2.56h2.6624v2.6624c0 17.0496 36.352 31.4368 79.36 31.4368S481.28 531.5584 481.28 515.1232v-1.9968h5.12a17.3056 17.3056 0 0 1 0 2.304v41.2672a18.5344 18.5344 0 0 1-9.0112 15.9744c-17.1008 10.0352-42.1888 15.0016-77.2608 15.0016z m-81.5104-59.7504v28.8256a13.5168 13.5168 0 0 0 6.8096 11.5712c16.1792 9.3696 41.3184 14.1312 74.7008 14.1312s58.5728-5.12 74.7008-14.4896a13.4144 13.4144 0 0 0 6.4512-11.4688V527.36c-13.1072 14.8992-49.2544 24.2688-83.456 24.2688-36.8128 0.0512-67.4816-9.6768-79.2064-23.7056z"  /><path fill="#f4ea2a" d="M399.9744 542.72c-47.5648 0-84.8384-16.0768-84.8384-36.5568s37.2736-36.5568 84.8384-36.5568 85.0432 16.0768 85.0432 36.5568-37.376 36.5568-85.0432 36.5568z m0-67.9936c-43.2128 0-79.7184 14.3872-79.7184 31.4368S356.7616 537.6 399.9744 537.6s79.9232-14.3872 79.9232-31.4368-36.608-31.5904-79.9232-31.5904zM399.9744 640.8192c-33.7408 0-59.6992-5.12-77.2096-14.7968a18.6368 18.6368 0 0 1-9.3184-16.128v-39.168h5.12c0 10.752 39.5776 20.9408 81.408 20.9408 38.8096 0 81.4592-10.9568 81.4592-20.9408h5.12v38.8608a18.4832 18.4832 0 0 1-9.2672 16.0256c-16.9984 10.0864-43.0592 15.2064-77.312 15.2064z m-81.408-60.9792v30.0544a13.5168 13.5168 0 0 0 6.7072 11.6736c16.6912 9.3696 41.8816 14.1312 74.7008 14.1312s58.4704-5.12 74.752-14.4896a13.4656 13.4656 0 0 0 6.5536-11.6224v-30.1568c-14.4384 11.5712-56.32 17.3568-81.4592 17.3568-28.1088 0-67.3792-5.4272-81.2544-16.9472z"  /><path fill="#f4ea2a" d="M400.128 693.9136c-34.7648 0-60.0576-4.864-77.2608-14.848a18.5344 18.5344 0 0 1-9.2672-16.0768v-39.168h5.12c0 10.8032 39.5776 20.992 81.408 20.992 37.4784 0 78.4896-10.24 81.3056-19.9168v-3.6352h5.12v2.56a8.3456 8.3456 0 0 1 0 1.5872v37.3248a18.6368 18.6368 0 0 1-9.1136 15.9744c-17.152 10.24-42.24 15.2064-77.312 15.2064z m-81.408-60.9792v30.0544a13.5168 13.5168 0 0 0 6.7072 11.6736c16.1792 9.3696 41.3184 14.1312 74.7008 14.1312s58.5728-4.864 74.7008-14.4896a13.4144 13.4144 0 0 0 6.4512-11.5712v-30.1056c-14.592 11.52-56.0128 17.3056-81.3056 17.3056-28.1088 0-67.1744-5.4272-81.2544-16.9984z"  /><path fill="#f4ea2a" d="M399.9744 747.0592c-34.2016 0-60.2112-5.12-77.2608-14.848a18.5344 18.5344 0 0 1-9.2672-16.0768v-39.168h5.12c0 10.752 39.5776 20.9408 81.408 20.9408 38.8096 0 81.4592-10.9568 81.4592-20.9408h5.12v38.8608a18.4832 18.4832 0 0 1-9.2672 16.0256c-16.9984 10.0864-43.0592 15.2064-77.312 15.2064zM318.5664 686.08v30.0544a13.5168 13.5168 0 0 0 6.7072 11.6736c16.2816 9.3696 41.4208 14.1312 74.7008 14.1312s58.4704-4.864 74.752-14.4896a13.4656 13.4656 0 0 0 6.5536-11.6224v-30.1568c-14.4384 11.5712-56.32 17.3568-81.4592 17.3568-28.1088 0-67.3792-5.4272-81.2544-16.9472z"  /><path fill="#f4ea2a" d="M400.128 800.1536c-34.7648 0-60.0576-4.864-77.2608-14.848a18.5344 18.5344 0 0 1-9.2672-16.0768v-39.168h5.12c0 10.8032 39.5776 20.992 81.408 20.992 37.4784 0 78.4896-10.24 81.3056-19.9168v-3.6352h5.12v2.56a8.3456 8.3456 0 0 1 0 1.5872v37.3248a18.6368 18.6368 0 0 1-9.1136 15.9744c-17.152 10.24-42.24 15.2064-77.312 15.2064z m-81.408-60.9792v30.0544a13.5168 13.5168 0 0 0 6.7072 11.6736c16.1792 9.3696 41.3184 14.1312 74.7008 14.1312s58.5728-4.864 74.7008-14.4896a13.4144 13.4144 0 0 0 6.4512-11.5712v-30.1056c-14.592 11.52-56.0128 17.3056-81.3056 17.3056-28.1088 0-67.1744-5.4272-81.2544-16.9984zM220.16 683.52c-34.2016 0-60.2624-5.12-77.4656-14.6944a18.6368 18.6368 0 0 1-9.2672-16.0768v-41.472a15.7184 15.7184 0 0 1 0-2.2016h5.12v2.2528c0.6144 17.0496 36.7104 31.1808 79.36 31.1808 43.6736 0 83.456-15.0016 83.456-31.4368V609.28h5.12a17.3056 17.3056 0 0 1 0 2.304v41.2672a18.5856 18.5856 0 0 1-9.5232 15.7696c-16.64 9.8816-42.5472 14.8992-76.8 14.8992z m-81.6128-59.4432v28.672a13.568 13.568 0 0 0 6.7072 11.6736c16.384 9.2672 41.5744 13.9776 74.9056 13.9776s58.368-4.7616 74.4448-14.1824a13.568 13.568 0 0 0 6.7584-11.5712v-29.0816c-13.1072 14.8992-49.2544 24.2688-83.456 24.2688-36.9152 0-67.6352-9.7792-79.36-23.7568z"  /><path fill="#f4ea2a" d="M220.16 638.5664c-47.616 0-84.8896-16.0768-84.8896-36.5568s37.2736-36.5568 84.8896-36.5568 85.0432 16.0768 85.0432 36.5568-37.376 36.5568-85.0432 36.5568z m0-67.9936c-43.264 0-79.7696 14.3872-79.7696 31.4368s36.5056 31.4368 79.7696 31.4368 79.9232-14.3872 79.9232-31.4368-36.608-31.4368-79.9232-31.4368zM220.16 736.8192c-34.304 0-60.3648-5.12-77.312-14.848a18.6368 18.6368 0 0 1-9.2672-16.0768v-39.168h5.12c0 10.752 39.5776 20.9408 81.4592 20.9408 38.8096 0 81.4592-10.9568 81.4592-20.9408h5.12v38.8608a18.6368 18.6368 0 0 1-9.3184 16.0256c-17.0496 10.0864-43.0592 15.2064-77.2608 15.2064zM138.5472 675.84v30.0544a13.568 13.568 0 0 0 6.7072 11.6736c16.1792 9.3696 41.3184 14.1312 74.752 14.1312s58.5216-4.864 74.6496-14.4896a13.4656 13.4656 0 0 0 6.8096-11.6224v-30.1568c-14.4384 11.5712-56.32 17.3568-81.4592 17.3568-28.2624 0-67.584-5.4272-81.4592-16.9472z"  /><path fill="#f4ea2a" d="M220.16 789.9136c-34.304 0-60.3136-5.12-77.312-14.592a18.6368 18.6368 0 0 1-9.2672-16.0768v-39.168h5.12c0 10.8032 39.5776 20.992 81.4592 20.992 38.8096 0 81.4592-11.008 81.4592-20.992h5.12v38.656a18.6368 18.6368 0 0 1-9.3184 15.9744c-16.9984 10.0864-42.9056 15.2064-77.2608 15.2064z m-81.92-60.7232v30.0544a13.568 13.568 0 0 0 6.7072 11.6736c16.1792 9.1648 41.3184 13.824 74.752 13.8752H220.16c33.2288 0 58.2144-4.864 74.2912-14.4896a13.5168 13.5168 0 0 0 6.8096-11.5712v-29.952c-14.4384 11.5712-56.32 17.408-81.4592 17.408-28.0576 0-67.3792-5.4272-81.2544-16.9984z"  /></svg>