<?xml version="1.0" standalone="no"?><!DOCTYPE svg PUBLIC "-//W3C//DTD SVG 1.1//EN" "http://www.w3.org/Graphics/SVG/1.1/DTD/svg11.dtd"><svg class="icon" width="200px" height="200.00px" viewBox="0 0 1024 1024" version="1.1" xmlns="http://www.w3.org/2000/svg"><path fill="#f4ea2a" d="M732.16 858.5728H291.84a22.6304 22.6304 0 0 1-22.5792-22.5792V224A22.6304 22.6304 0 0 1 291.84 201.4208h90.7264V256a17.4592 17.4592 0 0 0 17.408 17.4592h208.0256a17.4592 17.4592 0 0 0 17.4592-17.4592V201.4208H732.16a22.6304 22.6304 0 0 1 22.5792 22.5792v422.5536h-2.56a77.4656 77.4656 0 1 0 0 154.88h2.56v34.56a22.6304 22.6304 0 0 1-22.5792 22.5792zM291.84 206.5408a17.4592 17.4592 0 0 0-17.4592 17.4592v611.9936a17.4592 17.4592 0 0 0 17.4592 17.4592h440.32a17.4592 17.4592 0 0 0 17.4592-17.4592v-29.4912a82.5344 82.5344 0 0 1 0-165.0176V224a17.4592 17.4592 0 0 0-17.4592-17.4592h-101.5808V256a22.6304 22.6304 0 0 1-22.5792 22.5792H399.9744a22.6304 22.6304 0 0 1-22.528-22.5792v-49.4592z m346.5728 368.0256H385.4336v-21.1456h253.1328z m-248.0128-5.12h242.8928v-10.9056H390.5536z m248.0128-70.8608H385.4336v-21.1456h253.1328z m-248.0128-5.12h242.8928v-10.9056H390.5536z m248.0128-70.912H385.4336v-21.0944h253.1328z m-248.0128-5.12h242.8928v-10.8544H390.5536z"  /><path fill="#f4ea2a" d="M600.0128 262.5536h-192a14.592 14.592 0 0 1-14.592-14.5408v-46.592h72.0896a38.5536 38.5536 0 0 1 76.8 0H614.4v46.592a14.5408 14.5408 0 0 1-14.3872 14.5408zM398.5408 206.5408v41.472a9.472 9.472 0 0 0 9.472 9.4208h192a9.472 9.472 0 0 0 9.2672-9.4208v-41.472h-71.68v-2.56a33.4336 33.4336 0 0 0-66.8672 0v2.56zM752.0256 790.5792a66.56 66.56 0 1 1 66.56-66.56 66.56 66.56 0 0 1-66.56 66.56z m0-128a61.44 61.44 0 1 0 61.44 61.44 61.44 61.44 0 0 0-61.44-61.44z m3.9936 103.9872h-8.0384a6.6048 6.6048 0 0 1-6.5536-6.5536v-25.6h-25.6a6.6048 6.6048 0 0 1-6.5536-6.5536v-8.0384a6.6048 6.6048 0 0 1 6.5536-6.5536h25.6v-25.6a6.6048 6.6048 0 0 1 6.5536-6.6048h8.0384a6.6048 6.6048 0 0 1 6.5536 6.6048v25.6h25.6a6.6048 6.6048 0 0 1 6.5536 6.5536v8.0384a6.6048 6.6048 0 0 1-6.5536 6.5536h-25.6v25.6a6.6048 6.6048 0 0 1-6.5536 6.5536z m-40.0384-48.0256a1.4848 1.4848 0 0 0-1.4336 1.4336v8.0384a1.4848 1.4848 0 0 0 1.4336 1.4336h30.72v30.72a1.4848 1.4848 0 0 0 1.4336 1.4336h8.0384a1.4848 1.4848 0 0 0 1.4336-1.4336v-30.72h30.72a1.4848 1.4848 0 0 0 1.4336-1.4336v-8.0384a1.4848 1.4848 0 0 0-1.4336-1.4336h-30.72v-30.72a1.4848 1.4848 0 0 0-1.4336-1.4848h-8.0384a1.4848 1.4848 0 0 0-1.4336 1.4848v30.72z"  /></svg>