<?xml version="1.0" standalone="no"?><!DOCTYPE svg PUBLIC "-//W3C//DTD SVG 1.1//EN" "http://www.w3.org/Graphics/SVG/1.1/DTD/svg11.dtd"><svg class="icon" width="200px" height="200.00px" viewBox="0 0 1024 1024" version="1.1" xmlns="http://www.w3.org/2000/svg"><path fill="#f4ea2a" d="M868 664h-120v-116a20 20 0 0 0-20-20H308a20 20 0 0 0-20 20v116H160a20 20 0 0 1-20-20V380a20 20 0 0 1 20-20h708a20 20 0 0 1 20 20v264a20 20 0 0 1-20 20z m-112-8h112a12 12 0 0 0 12-12V380a12 12 0 0 0-12-12H160a12 12 0 0 0-12 12v264a12 12 0 0 0 12 12h120v-108a28 28 0 0 1 28-28h420a28 28 0 0 1 28 28zM246 420a18 18 0 1 1 18-18 18.04 18.04 0 0 1-18 18z m0-28a10 10 0 1 0 10 10 10 10 0 0 0-10-10z m-52 28a18 18 0 1 1 18-18 18.04 18.04 0 0 1-18 18z m0-28a10 10 0 1 0 10 10 10 10 0 0 0-10-10z"  /><path fill="#f4ea2a" d="M752 344H276V296a20 20 0 0 1 20-20h436a20 20 0 0 1 20 20zM284 336h460V296a12 12 0 0 0-12-12H296a12 12 0 0 0-12 12zM712 888H324a20 20 0 0 1-20-20v-304a20 20 0 0 1 20-20h388a20 20 0 0 1 20 20v304a20 20 0 0 1-20 20z m-388-336a12 12 0 0 0-12 12v304a12 12 0 0 0 12 12h388a12 12 0 0 0 12-12v-304a12 12 0 0 0-12-12z m324 243.64H392a16 16 0 1 1 0-32h256a16 16 0 0 1 0 32z m-256-24a8 8 0 1 0 0 16h256a8 8 0 0 0 0-16z m256-48H392a16 16 0 0 1 0-32h256a16 16 0 0 1 0 32z m-256-24a8 8 0 0 0 0 16h256a8 8 0 0 0 0-16zM648 652H392a16 16 0 0 1 0-32h256a16 16 0 0 1 0 32z m-256-24a8 8 0 0 0 0 16h256a8 8 0 0 0 0-16z"  /></svg>