<?xml version="1.0" standalone="no"?><!DOCTYPE svg PUBLIC "-//W3C//DTD SVG 1.1//EN" "http://www.w3.org/Graphics/SVG/1.1/DTD/svg11.dtd"><svg class="icon" width="200px" height="200.00px" viewBox="0 0 1024 1024" version="1.1" xmlns="http://www.w3.org/2000/svg"><path fill="#f4ea2a" d="M498.9952 758.2208h-12.6464c-122.368-38.2464-193.024-87.8592-209.92-147.5072S251.904 450.56 253.44 310.1184v-2.4576h2.56a791.3472 791.3472 0 0 0 122.2656-13.056c34.7648-6.656 59.5456-21.0944 108.9536-49.8176l9.2672-5.12 2.9184 4.1472c-2.4576 2.048-60.5184 50.176-78.1824 59.1872-31.3344 15.8208-71.68 26.4704-120.1152 31.6416-3.3792 113.7664 0 193.1264 9.4208 235.8784 14.2848 63.2832 25.6 84.992 83.0464 128.5632a523.4688 523.4688 0 0 0 94.976 54.5792z m-240.64-445.44c-1.3824 138.6496 6.2464 238.3872 22.784 296.6016 14.7968 51.968 72.2944 96.3072 171.2128 132.096a447.3856 447.3856 0 0 1-62.0544-38.5024c-58.88-44.544-70.4-66.56-84.9408-131.4816-9.7792-43.4688-13.0048-124.0064-9.5232-239.4112v-2.2528h2.2016c48.7424-5.12 89.2928-15.36 120.576-31.3344 9.728-5.12 33.2288-23.0912 51.7632-37.888-37.7856 21.76-60.672 33.4336-91.4432 39.3216a789.4016 789.4016 0 0 1-120.4224 12.6976zM551.2192 758.2208v-5.12l1.4848-1.024a535.296 535.296 0 0 0 94.5152-54.3744c57.5488-43.5712 68.8128-65.28 83.0464-128.5632 9.6768-42.8032 12.8512-122.112 9.472-235.8272-59.392-3.584-105.472-13.4144-136.9088-29.2864-16.896-8.6016-41.8304-29.44-74.0352-62.0032l3.2768-3.8912C578.56 271.36 620.2368 291.5328 655.36 298.2912a589.2608 589.2608 0 0 0 129.0752 8.2432h2.6624v2.6624c1.6384 140.3904-6.0416 241.4592-22.784 300.4416s-87.6032 109.3632-209.92 147.6608z m1.3824-500.0704c22.1696 20.992 39.7824 34.816 52.5312 41.2672 31.232 15.7696 77.4144 25.6 137.2672 28.928h2.3552v2.3552c3.4816 115.4048 0.256 195.9424-9.5744 239.4624-14.5408 64.7168-26.0608 87.04-84.9408 131.4816a457.4208 457.4208 0 0 1-63.232 39.0656c99.6864-35.84 157.696-80.5376 172.4928-132.7104 16.5376-58.1632 24.1664-157.8496 22.6816-296.3456a591.8208 591.8208 0 0 1-127.5904-8.448c-29.952-5.632-64.1536-20.7872-101.9904-45.056z"  /><path fill="#f4ea2a" d="M523.3152 747.8272L522.24 747.52c-103.4752-44.2368-164.8128-93.2352-182.3744-145.5616s-24.4736-140.4928-21.248-263.0656v-2.4576h2.4576A268.6976 268.6976 0 0 0 430.08 311.1936a244.5824 244.5824 0 0 0 83.968-63.0272l2.1504-2.4576 1.8944 2.6624a189.44 189.44 0 0 0 76.8 62.8224c32.8192 15.36 75.4176 23.9616 126.6176 25.1904h2.4576v2.4576c3.6864 133.12-5.8368 224.6144-28.2624 272.0256S615.424 704.4096 524.3904 747.52z m-199.68-406.3744c-3.072 120.7296 3.9936 207.7696 21.0944 258.7648s76.8 98.5088 178.432 142.0288c89.3952-42.2912 145.7664-87.04 167.68-133.4784s31.2832-136.3456 27.8016-267.3152c-50.8416-1.4848-93.2864-10.24-126.208-25.6a195.2768 195.2768 0 0 1-76.8-61.9008 250.5728 250.5728 0 0 1-83.456 61.9008 273.4592 273.4592 0 0 1-108.4928 25.6z m238.336 220.5184l-46.08-24.2176-45.7216 24.064 8.6528-49.5104-36.7616-39.9872h52.224l21.7088-52.0704L537.6 472.32h52.7872l-39.68 39.9872zM453.8368 477.44l30.72 33.28-7.3216 41.728 38.912-20.48 38.6048 20.48-9.4208-41.5744 33.024-33.28h-43.9296l-18.2784-43.9296-18.2784 43.9296z"  /></svg>