<?xml version="1.0" standalone="no"?><!DOCTYPE svg PUBLIC "-//W3C//DTD SVG 1.1//EN" "http://www.w3.org/Graphics/SVG/1.1/DTD/svg11.dtd"><svg class="icon" width="200px" height="200.00px" viewBox="0 0 1024 1024" version="1.1" xmlns="http://www.w3.org/2000/svg"><path fill="#f4ea2a" d="M868 892H156a24 24 0 0 1-24-24V156a24 24 0 0 1 24-24h712a24 24 0 0 1 24 24v712a24 24 0 0 1-24 24zM156 140a16 16 0 0 0-16 16v712a16 16 0 0 0 16 16h712a16 16 0 0 0 16-16V156a16 16 0 0 0-16-16z"  /><path fill="#f4ea2a" d="M371.48 444H284.52a16.52 16.52 0 0 1-16.52-16.52V340.52A16.52 16.52 0 0 1 284.52 324h86.96A16.52 16.52 0 0 1 388 340.52v86.96a16.52 16.52 0 0 1-16.52 16.52zM284.52 332A8.56 8.56 0 0 0 276 340.52v86.96a8.56 8.56 0 0 0 8.52 8.52h86.96a8.56 8.56 0 0 0 8.52-8.52V340.52A8.56 8.56 0 0 0 371.48 332z"  /><path fill="#f4ea2a" d="M371.48 708H284.52a16.52 16.52 0 0 1-16.52-16.52v-86.96a16.52 16.52 0 0 1 16.52-16.52h86.96a16.52 16.52 0 0 1 16.52 16.52v86.96a16.52 16.52 0 0 1-16.52 16.52z m-86.96-112a8.56 8.56 0 0 0-8.52 8.52v86.96a8.56 8.56 0 0 0 8.52 8.52h86.96a8.56 8.56 0 0 0 8.52-8.52v-86.96a8.56 8.56 0 0 0-8.52-8.52zM764 384h-288a8 8 0 0 1 0-16h288a8 8 0 0 1 0 16z m-288-8zM764 656h-288a8 8 0 0 1 0-16h288a8 8 0 0 1 0 16z m-288-8z"  /><path fill="#f4ea2a" d="M272 371.16l8.4-8.24a232.32 232.32 0 0 1 39.6 34.08q17.88-21.64 29.68-34.08T416 308l4.8 6.2A649.6 649.6 0 0 0 364 373.84a307.12 307.12 0 0 0-34.56 52.84h-15.96a258.04 258.04 0 0 0-20-30.84A294.44 294.44 0 0 0 272 371.16z"  /></svg>