<?xml version="1.0" standalone="no"?><!DOCTYPE svg PUBLIC "-//W3C//DTD SVG 1.1//EN" "http://www.w3.org/Graphics/SVG/1.1/DTD/svg11.dtd"><svg class="icon" width="200px" height="200.00px" viewBox="0 0 1024 1024" version="1.1" xmlns="http://www.w3.org/2000/svg"><path fill="#f4ea2a" d="M600 888H160a20 20 0 0 1-20-20V256a20 20 0 0 1 20-20h88v52a20 20 0 0 0 20 20h208a20 20 0 0 0 20-20V236h104a20 20 0 0 1 20 20v612a20 20 0 0 1-20 20zM160 244a12 12 0 0 0-12 12v612a12 12 0 0 0 12 12h440a12 12 0 0 0 12-12V256a12 12 0 0 0-12-12h-96v44a28 28 0 0 1-28 28H268a28 28 0 0 1-28-28V244z m190.4 417.56a27.68 27.68 0 0 1-8.4-1.32 28 28 0 0 1-12.36-7.08l-0.32-0.32L260 582.44a28 28 0 0 1 0-39.28l11.36-11.52a28 28 0 0 1 39.6-0.32l0.28 0.32 38.68 39.28L451.24 468a28 28 0 0 1 39.6 0.32l11.32 11.52a28 28 0 0 1 0 39.28l-132 134.28a28 28 0 0 1-19.76 8.16z m-59.16-130.24a20 20 0 0 0-14.16 5.92l-11.32 11.56a20 20 0 0 0 0 28l69.28 70.4a20.4 20.4 0 0 0 9.2 5.32 20 20 0 0 0 20-4.8l132-134.2a20 20 0 0 0 0-28l-11.36-11.52a20 20 0 0 0-28.28 0l-106.64 108.36-44.36-45.12a20.44 20.44 0 0 0-14.36-5.92z"  /><path fill="#f4ea2a" d="M468 292H276a12 12 0 0 1-12-12V236h72a36 36 0 0 1 72 0h72v44a12 12 0 0 1-12 12zM272 244v36a4 4 0 0 0 4 4h192a4 4 0 0 0 4-4v-36h-72v-8a28 28 0 0 0-56 0v8z m100 12a20 20 0 1 1 20-20 20 20 0 0 1-20 20z m0-32a12 12 0 1 0 12 12 12 12 0 0 0-12-12z"  /><path fill="#f4ea2a" d="M775.72 744h-87.36V364H776z m-79.36-8h71.36l0.28-364h-71.64z"  /><path fill="#f4ea2a" d="M776 348.76L688.36 348v-32a20 20 0 0 1 20-20H756a20 20 0 0 1 20 20zM696.36 340l71.56 0.68V316a12 12 0 0 0-12-12h-47.56a12 12 0 0 0-12 12zM732 820.48a12 12 0 0 1-7.6-2.68L688 788v-28h88v28l-36.44 29.8a12 12 0 0 1-7.56 2.68z m-36-36.28l33.48 27.4a4 4 0 0 0 5.08 0l33.48-27.4V768H696z"  /><path fill="#f4ea2a" d="M348.28 641.72a12 12 0 0 1-8.56-3.6l-62.52-64a12 12 0 0 1 0-16.76l8.56-8.76a12 12 0 0 1 17-0.2L348 594.88l112.56-110.64a11.28 11.28 0 0 1 8.56-3.44 12 12 0 0 1 8.44 3.6l8.56 8.76a12 12 0 0 1 0 16.92l-129.44 128.2a12 12 0 0 1-8.4 3.44z m-12-18.44l9.04 9.24a4 4 0 0 0 5.48 0.2l0.4-0.36 129.2-128a4 4 0 0 0 0-5.64l-8.4-8.72a4 4 0 0 0-2.84-1.2 4 4 0 0 0-2.84 1.12l-2.8-2.84 2.8 2.88L348 606.2l-50.84-52a4 4 0 0 0-5.72 0l-8.56 8.76a4 4 0 0 0 0 5.6L336 622.96l-2.56 3.12z"  /></svg>