<?xml version="1.0" standalone="no"?><!DOCTYPE svg PUBLIC "-//W3C//DTD SVG 1.1//EN" "http://www.w3.org/Graphics/SVG/1.1/DTD/svg11.dtd"><svg class="icon" width="200px" height="200.00px" viewBox="0 0 1024 1024" version="1.1" xmlns="http://www.w3.org/2000/svg"><path fill="#f4ea2a" d="M493.32 759.2a12 12 0 0 1-8.48-3.52l-104.64-104.68a12 12 0 0 1 0-16.96l22.64-22.6a12 12 0 0 1 16.96 0l72 72 159.2-159.2a12 12 0 0 1 16.96 0l22.72 22.72a12 12 0 0 1 0 16.88l-165.76 168.68-0.6 0.6-20.32 20.84a14.56 14.56 0 0 1-1.92 1.6 12 12 0 0 1-8.76 3.64z m-82-143.2a4 4 0 0 0-2.84 1.16l-22.64 22.64a4 4 0 0 0 0 5.64l104.68 104.64a4 4 0 0 0 5.64 0l1.04-0.88a4.6 4.6 0 0 0 0.96-0.8l186.88-190.12a4 4 0 0 0 0-5.64l-22.68-22.72a4 4 0 0 0-5.64 0L492 694.72l-77.64-77.64a4 4 0 0 0-3.04-1.08z"  /><path fill="#f4ea2a" d="M868 888H164a20 20 0 0 1-20-20V416h744v452a20 20 0 0 1-20 20zM152 424v444a12 12 0 0 0 12 12h704a12 12 0 0 0 12-12V424z m340.44 354.4a26.12 26.12 0 0 1-8.36-1.36 27.52 27.52 0 0 1-12.72-7.2L364 661.72a28 28 0 0 1 0-39.44l26.56-26.76a28 28 0 0 1 39.6 0L492 657.56l148-149.28a28 28 0 0 1 39.76 0l26.56 26.8a28 28 0 0 1 0 39.44l-194 195.56a28.6 28.6 0 0 1-19.88 8.32z m-81.92-183.16a20 20 0 0 0-14.16 5.88L369.8 628a20 20 0 0 0 0 28l107.08 108a20.36 20.36 0 0 0 9.4 5.32 20 20 0 0 0 20.36-4.8l194.12-195.68a20 20 0 0 0 0-28.2l-26.56-26.76a20 20 0 0 0-28.28 0L492 668.92l-67.28-67.8a20.2 20.2 0 0 0-14.2-5.88z"  /><path fill="#f4ea2a" d="M896 424H136V301.44L195.28 268H840l56 33.44z m-752-8h744V305.96L837.8 276H197.36L144 306.12z"  /><path fill="#f4ea2a" d="M136 420V304h760v116h-296v-30.84h-176V420z m8-108v100h272v-30.84h192V412h280V312z"  /></svg>