<?xml version="1.0" standalone="no"?><!DOCTYPE svg PUBLIC "-//W3C//DTD SVG 1.1//EN" "http://www.w3.org/Graphics/SVG/1.1/DTD/svg11.dtd"><svg class="icon" width="200px" height="200.00px" viewBox="0 0 1024 1024" version="1.1" xmlns="http://www.w3.org/2000/svg"><path fill="#f4ea2a" d="M160 883.64a20 20 0 0 1-20-20V160a20 20 0 0 1 20-20h704a20 20 0 0 1 20 20v92H264.52A12.56 12.56 0 0 0 252 264.52v530.96a12.56 12.56 0 0 0 12.52 12.52h20.44l-114.24 72.52a20 20 0 0 1-10.72 3.12zM160 148a12 12 0 0 0-12 12v703.64a12 12 0 0 0 12 12 12.2 12.2 0 0 0 6.44-1.88l92.32-58.6a20.56 20.56 0 0 1-14.76-19.68V264.52A20.52 20.52 0 0 1 264.52 244H876V160a12 12 0 0 0-12-12z"  /><path fill="#f4ea2a" d="M868 885.28a20 20 0 0 1-10.72-3.12l-142.6-90.56c-4-2.48-15.28-10-20.4-10H288a20 20 0 0 1-20-20V288a20 20 0 0 1 20-20h580a20 20 0 0 1 20 20v577.28a20 20 0 0 1-20 20zM288 276a12 12 0 0 0-12 12v473.6a12 12 0 0 0 12 12h406.28c5.28 0 12.68 3.36 24.72 11.28l142.56 90.52a12 12 0 0 0 6.44 1.88 12 12 0 0 0 12-12V288a12 12 0 0 0-12-12z m396 354a14 14 0 0 1-14-14v-188a14 14 0 0 1 28 0v188a14 14 0 0 1-14 14z m0-208a6 6 0 0 0-6 6v188a6 6 0 0 0 12 0v-188a6 6 0 0 0-6-6z m-112 208a14 14 0 0 1-14-14v-188a14 14 0 0 1 28 0v188a14 14 0 0 1-14 14z m0-208a6 6 0 0 0-6 6v188a6 6 0 0 0 12 0v-188a6 6 0 0 0-6-6z m-112 208a14 14 0 0 1-14-14v-188a14 14 0 0 1 28 0v188a14 14 0 0 1-14 14z m0-208a6 6 0 0 0-6 6v188a6 6 0 0 0 12 0v-188a6 6 0 0 0-6-6z"  /></svg>