<?xml version="1.0" standalone="no"?><!DOCTYPE svg PUBLIC "-//W3C//DTD SVG 1.1//EN" "http://www.w3.org/Graphics/SVG/1.1/DTD/svg11.dtd"><svg class="icon" width="200px" height="200.00px" viewBox="0 0 1024 1024" version="1.1" xmlns="http://www.w3.org/2000/svg"><path fill="#f4ea2a" d="M588 640H336l-0.28-3.68a74 74 0 0 0-147.6 0L188 640H144v-104h444z m-244.6-8H580v-88H152v88h28.6a82 82 0 0 1 162.8 0zM588 520H144V268h444z m-436-8h428V276H152z"  /><path fill="#f4ea2a" d="M892 640h-68l-0.28-3.68a74 74 0 0 0-147.6 0l-0.12 3.68h-72v-120h288z m-60.6-8H884v-104h-272v104h56.6a82 82 0 0 1 162.8 0z m56-122.6L884 504h-280V380h208.72l76.68 117.68h16zM612 496h266.76L808.4 388H612z"  /><path fill="#f4ea2a" d="M262 704A62 62 0 1 1 324 642 62.04 62.04 0 0 1 262 704z m0-116A54 54 0 1 0 316 642 54.08 54.08 0 0 0 262 588z"  /><path fill="#f4ea2a" d="M750 704a62 62 0 1 1 62-62 62.04 62.04 0 0 1-62 62z m0-116a54 54 0 1 0 54 54 54.08 54.08 0 0 0-54-54z"  /></svg>