<?xml version="1.0" standalone="no"?><!DOCTYPE svg PUBLIC "-//W3C//DTD SVG 1.1//EN" "http://www.w3.org/Graphics/SVG/1.1/DTD/svg11.dtd"><svg class="icon" width="200px" height="200.00px" viewBox="0 0 1024 1024" version="1.1" xmlns="http://www.w3.org/2000/svg"><path fill="#f4ea2a" d="M871.9872 894.5664H152.0128a22.6304 22.6304 0 0 1-22.5792-22.5792V152.0128a22.6304 22.6304 0 0 1 22.5792-22.5792h719.9744a22.6304 22.6304 0 0 1 22.5792 22.5792v184.9856l-57.5488 61.44-276.0704 278.784-22.3744 22.9376v83.968A9.4208 9.4208 0 0 0 547.84 793.6h79.0016l13.9776-12.8L716.8 711.68l177.5616-177.5616v337.92a22.6304 22.6304 0 0 1-22.3744 22.528zM152.0128 134.5536a17.4592 17.4592 0 0 0-17.4592 17.4592v719.9744a17.4592 17.4592 0 0 0 17.4592 17.4592h719.9744a17.4592 17.4592 0 0 0 17.4592-17.4592v-325.376l-168.96 168.96L628.992 798.72H547.84a14.592 14.592 0 0 1-14.5408-14.592v-86.2208l25.6-26.5728 274.0224-276.48 56.32-59.6992V152.0128a17.4592 17.4592 0 0 0-17.4592-17.4592z"  /><path fill="#f4ea2a" d="M628.0704 782.5408h-64.0512a14.592 14.592 0 0 1-14.592-14.5408v-64.9728l23.5008-26.624 78.6432 82.7392z m-73.5232-77.568V768a9.4208 9.4208 0 0 0 9.472 9.4208h61.9008l18.4832-18.3808-71.3216-75.0592z m102.8608 50.688l-77.7216-84.1216 1.7408-1.7408 267.8784-269.0048 86.3744 83.2-1.8944 1.8432z m-70.6048-84.0192l70.8096 76.8 270.6944-264.3456-78.8992-76.0832z m356.9152-194.56l-86.5792-83.2 27.136-28.1088a22.6816 22.6816 0 0 1 31.5904-0.9216L972.8 416.8192a22.6304 22.6304 0 0 1 1.3312 31.8464l-0.4096 0.4608-0.9216 0.9216zM864.4096 393.728l79.36 76.1344 25.6-23.6032 0.6656-0.6656 0.4096-0.4608a17.4592 17.4592 0 0 0-1.1264-24.5248L912.384 368.64a17.5616 17.5616 0 0 0-24.4224 0.768z"  /></svg>