<?xml version="1.0" standalone="no"?><!DOCTYPE svg PUBLIC "-//W3C//DTD SVG 1.1//EN" "http://www.w3.org/Graphics/SVG/1.1/DTD/svg11.dtd"><svg class="icon" width="200px" height="200.00px" viewBox="0 0 1024 1024" version="1.1" xmlns="http://www.w3.org/2000/svg"><path fill="#f4ea2a" d="M806.4 887.2H220V844a20 20 0 0 1 20-20h546.4a20 20 0 0 1 20 20z m-578.4-8h570.4V844a12 12 0 0 0-12-12H240a12 12 0 0 0-12 12zM752 808H272v-352a240 240 0 0 1 480 0z m-472-8h464v-344a232 232 0 0 0-464 0z"  /><path fill="#f4ea2a" d="M514.96 710.76a24 24 0 1 1 24-24 24 24 0 0 1-24.16 24z m0-40a16 16 0 0 0 0 32v4-4a16 16 0 0 0 0-32z m-0.36-21.92a19.52 19.52 0 0 1-19.44-17.56l-18.96-184.92a34.92 34.92 0 0 1 31.2-38.32h3.68a36 36 0 0 1 36 36v2.52l-13.4 184.84a19.04 19.04 0 0 1-19.08 17.44z m-5.2-232.84H508a26.96 26.96 0 0 0-24 29.56l19 184.92a11.52 11.52 0 0 0 11.48 10.36 11 11 0 0 0 10.92-10.16l13.4-184.76a14.12 14.12 0 0 0 0-1.84 28 28 0 0 0-28-28h-1.56zM512 196a8 8 0 0 1-8-8v-36a8 8 0 0 1 16 0v36a8 8 0 0 1-8 8z m0-44zM269.6 279.32a8 8 0 0 1-5.6-2.32l-41-44a7.64 7.64 0 0 1-2.36-5.24 8 8 0 0 1 2.12-5.8l1.6-1.68h0.68a8 8 0 0 1 9.32 1.4l41.04 44a8 8 0 0 1 0 11.2 8 8 0 0 1-5.8 2.44z m-41.04-52l41.12 44-41.12-44zM755.24 279.2a8 8 0 0 1-5.68-2.36 8 8 0 0 1 0-11.24l40.84-44a8 8 0 1 1 11.44 11.16l-40.96 44a8 8 0 0 1-5.64 2.44z m40.88-52l-34.32 36.8 34.2-36.76z"  /></svg>