<?xml version="1.0" standalone="no"?><!DOCTYPE svg PUBLIC "-//W3C//DTD SVG 1.1//EN" "http://www.w3.org/Graphics/SVG/1.1/DTD/svg11.dtd"><svg class="icon" width="200px" height="200.00px" viewBox="0 0 1024 1024" version="1.1" xmlns="http://www.w3.org/2000/svg"><path fill="#f4ea2a" d="M364 584h308v16H364z"  /><path fill="#f4ea2a" d="M364 616h308v16H364zM364 648h308v16H364zM364 680h308v16H364zM364 712h308v16H364zM364 744h308v16H364zM364 776h308v16H364zM364 808h308v16H364zM364 840h308v16H364zM364 872h308v16H364z"  /><path fill="#f4ea2a" d="M888 887.2h-200V568H348v319.2H144v-468l370-161.2 1.6 0.68 372.4 160.64z m-192-8h184V424.6l-366-157.88L152 424.56V879.2h188V560h356z"  /><path fill="#f4ea2a" d="M140 411.76V336l376-162.84 376 161.96v76.72l-377.96-160.36z m8-70.68v58.56l366-156.84L884 399.6V340.2l-368-158.48z"  /></svg>