<?xml version="1.0" standalone="no"?><!DOCTYPE svg PUBLIC "-//W3C//DTD SVG 1.1//EN" "http://www.w3.org/Graphics/SVG/1.1/DTD/svg11.dtd"><svg t="1548318252308" class="icon" style="" viewBox="0 0 1024 1024" version="1.1" xmlns="http://www.w3.org/2000/svg" p-id="1726" xmlns:xlink="http://www.w3.org/1999/xlink" width="200" height="200"><defs><style type="text/css"></style></defs><path d="M882.04 357.68l-360 208.48a20 20 0 0 1-20 0l-360-208.48A20 20 0 0 1 132 340.4V792a20 20 0 0 0 20 20h720a20 20 0 0 0 20-20V340.4a20 20 0 0 1-9.96 17.28z" fill="#47BAFF" p-id="1727"></path><path d="M152 189.56h720a20 20 0 0 1 20 20v108.4a20 20 0 0 1-9.96 17.32l-360 208.44a20 20 0 0 1-20 0l-360-208.44A20 20 0 0 1 132 317.96v-108.4a20 20 0 0 1 20-20z" fill="#2146FF" p-id="1728"></path></svg>