<?xml version="1.0" standalone="no"?><!DOCTYPE svg PUBLIC "-//W3C//DTD SVG 1.1//EN" "http://www.w3.org/Graphics/SVG/1.1/DTD/svg11.dtd"><svg class="icon" width="200px" height="200.00px" viewBox="0 0 1024 1024" version="1.1" xmlns="http://www.w3.org/2000/svg"><path d="M484 855.6h352a20 20 0 0 0 20-20V204a20 20 0 0 0-20-20H192a20 20 0 0 0-20 20v632a20 20 0 0 0 20 20h288a22.76 22.76 0 0 0 4-0.4zM176 168h676a20 20 0 0 1 20 20v664a20 20 0 0 1-20 20H176a20 20 0 0 1-20-20V188a20 20 0 0 1 20-20z" fill="#0942F0" /><path d="M528 204h288a20 20 0 0 1 20 20v592a20 20 0 0 1-20 20h-288z" fill="#0942F0" /><path d="M592 444h188v48h-188zM592 536h188v48h-188z" fill="#47BAFF" /><path d="M212 204h297.56v300H212a20 20 0 0 1-20-20V224a20 20 0 0 1 20-20z" fill="#0942F0" /><path d="M212 520h297.56v316H212a20 20 0 0 1-20-20v-276a20 20 0 0 1 20-20z" fill="#2146FF" /><path d="M328 336V268h48v68h68v48H376v72H328V384H256V336z" fill="#47BAFF" /><path d="M256 656h188v48H256z" fill="#47BAFF" /></svg>