<?xml version="1.0" standalone="no"?><!DOCTYPE svg PUBLIC "-//W3C//DTD SVG 1.1//EN" "http://www.w3.org/Graphics/SVG/1.1/DTD/svg11.dtd"><svg class="icon" width="200px" height="200.00px" viewBox="0 0 1024 1024" version="1.1" xmlns="http://www.w3.org/2000/svg"><path d="M374.68 161.88A372.52 372.52 0 0 1 457 140l9.92 36h87.52l10.6-36.28a373.4 373.4 0 0 1 82.44 21.44l-9.6 36.84 75.76 43.72 28.44-27.16a380.88 380.88 0 0 1 61 59.4l-28 28.56 43.76 75.76 40.88-9.96a373.92 373.92 0 0 1 23.36 81.8l-41.56 11.44v87.48l43.4 12.68A374.32 374.32 0 0 1 864 644l-44.72-11.64-43.76 75.76 33.12 34.64a376.92 376.92 0 0 1-59.36 60.68l-34.52-34.04-75.8 43.76 11.76 48a371.52 371.52 0 0 1-81.88 22.2L556 836h-87.68l-13.92 47.6a371.36 371.36 0 0 1-81.84-22.32l12.32-47.28-76-43.72-34.68 33.16a377.2 377.2 0 0 1-59.32-60.76l32.72-33.2L204 633.72l-44 10.76a373.28 373.28 0 0 1-20.68-82.44l42.04-11.6v-87.48l-40.44-12A374.76 374.76 0 0 1 164 369.24l39.32 10.24 43.8-75.76L220 275.24A379.16 379.16 0 0 1 280.64 215.6L308 242.44l75.64-43.76zM512 684a172 172 0 1 0-172-172 172 172 0 0 0 172 172z" fill="#0942F0" /><path d="M512 516m-112 0a112 112 0 1 0 224 0 112 112 0 1 0-224 0Z" fill="#47BAFF" /></svg>