<?xml version="1.0" standalone="no"?><!DOCTYPE svg PUBLIC "-//W3C//DTD SVG 1.1//EN" "http://www.w3.org/Graphics/SVG/1.1/DTD/svg11.dtd"><svg class="icon" width="200px" height="200.00px" viewBox="0 0 1024 1024" version="1.1" xmlns="http://www.w3.org/2000/svg"><path d="M144 536h444v104H332a72 72 0 0 0-144 0H144z m0-16V268h444v252z" fill="#0942F0" /><path d="M604 520h288v120h-72a72 72 0 0 0-144 0h-72z m0-16V380h208.72L892 501.68v2.32z" fill="#0942F0" /><path d="M262 642m-58 0a58 58 0 1 0 116 0 58 58 0 1 0-116 0Z" fill="#47BAFF" /><path d="M750 642m-58 0a58 58 0 1 0 116 0 58 58 0 1 0-116 0Z" fill="#47BAFF" /></svg>