<?xml version="1.0" standalone="no"?><!DOCTYPE svg PUBLIC "-//W3C//DTD SVG 1.1//EN" "http://www.w3.org/Graphics/SVG/1.1/DTD/svg11.dtd"><svg class="icon" width="200px" height="200.00px" viewBox="0 0 1024 1024" version="1.1" xmlns="http://www.w3.org/2000/svg"><path d="M748 664v-116a20 20 0 0 0-20-20H308a20 20 0 0 0-20 20v116H160a20 20 0 0 1-20-20V380a20 20 0 0 1 20-20h708a20 20 0 0 1 20 20v264a20 20 0 0 1-20 20zM194 412a10 10 0 1 0-10-10 10 10 0 0 0 10 10z m52 0a10 10 0 1 0-10-10 10 10 0 0 0 10 10z" fill="#0942F0" /><path d="M752 344H276V296a20 20 0 0 1 20-20h436a20 20 0 0 1 20 20zM324 544h388a20 20 0 0 1 20 20v304a20 20 0 0 1-20 20H324a20 20 0 0 1-20-20v-304a20 20 0 0 1 20-20z m68 84a8 8 0 0 0 0 16h256a8 8 0 0 0 0-16z m0 72a8 8 0 0 0 0 16h256a8 8 0 0 0 0-16z m0 72a8 8 0 1 0 0 16h256a8 8 0 0 0 0-16z" fill="#47BAFF" /></svg>