<?xml version="1.0" standalone="no"?><!DOCTYPE svg PUBLIC "-//W3C//DTD SVG 1.1//EN" "http://www.w3.org/Graphics/SVG/1.1/DTD/svg11.dtd"><svg class="icon" width="200px" height="200.00px" viewBox="0 0 1024 1024" version="1.1" xmlns="http://www.w3.org/2000/svg"><path d="M500 692v-92q0-47.52 5.64-136-55.48-4.24-105.96-5.4A198.24 198.24 0 0 0 328 468.44V392a20 20 0 0 1 20-20h536a20 20 0 0 1 20 20v116a22 22 0 0 0 0 44v120a20 20 0 0 1-20 20z" fill="#47BAFF" /><path d="M500 660v-148.28a40 40 0 0 0-25.28-37.2 214.8 214.8 0 0 0-73.08-16 238.68 238.68 0 0 0-37.64 1.88V424a20 20 0 0 1 20-20h464a20 20 0 0 1 20 20v216a20 20 0 0 1-20 20z" fill="#0942F0" /><path d="M608 532h-32v-24h16.68l-12.68-24h25.2l12.68 24h4.24l12.68-24h25.2l-12.68 24H664v24h-32v16h32v24h-32v28h-24v-28h-32v-24h32z" fill="#47BAFF" /><path d="M316 508a16.76 16.76 0 0 0 0 2c0 18.76 36.72 34 82 34s86-15.24 86-34a11.24 11.24 0 0 0 0-2v43.36a16 16 0 0 1-8 13.8q-25 14.84-76 14.84t-76-14.48a16 16 0 0 1-8-13.88V508z" fill="#0942F0" /><path d="M400 540c45.28 0 82.48-15.24 82.48-34s-37.2-34-82.48-34-82.32 15.24-82.32 34S354.72 540 400 540z" fill="#0942F0" /><path d="M484 560.48v38.88a16 16 0 0 1-8 13.8q-25 14.84-76 14.84t-76-14.48a16 16 0 0 1-8-13.88v-39.16c0 14.72 47.44 23.52 84 23.52s84-10.16 84-23.52z" fill="#0942F0" /><path d="M484 608.48v38.88a16 16 0 0 1-8 13.8q-25 14.84-76 14.84t-76-14.48a16 16 0 0 1-8-13.88v-39.16c0 14.72 47.44 23.52 84 23.52s84-10.16 84-23.52z" fill="#0942F0" /><path d="M484 656.48v38.88a16 16 0 0 1-8 13.8q-25 14.84-76 14.84t-76-14.48a16 16 0 0 1-8-13.88v-39.16c0 14.72 47.44 23.52 84 23.52s84-10.16 84-23.52z" fill="#0942F0" /><path d="M484 704.48v38.88a16 16 0 0 1-8 13.8q-25 14.84-76 14.84t-76-14.48a16 16 0 0 1-8-13.88v-39.16c0 14.72 47.44 23.52 84 23.52s84-10.16 84-23.52z" fill="#2146FF" /><path d="M136 604a16.76 16.76 0 0 0 0 2c0 18.76 36.72 34 82 34s86-15.24 86-34a11.24 11.24 0 0 0 0-2v43.36a16 16 0 0 1-8 13.8Q271 676 220 676t-76-14.48a16 16 0 0 1-8-13.88V604z" fill="#2146FF" /><path d="M220 636c45.28 0 82.48-15.24 82.48-34S265.28 568 220 568s-82.32 15.24-82.32 34S174.72 636 220 636z" fill="#2146FF" /><path d="M304 656.48v38.88a16 16 0 0 1-8 13.8Q271 724 220 724t-76-14.48a16 16 0 0 1-8-13.88v-39.16c0 14.72 47.44 23.52 84 23.52s84-10.16 84-23.52z" fill="#2146FF" /><path d="M304 704.48v38.88a16 16 0 0 1-8 13.8Q271 772 220 772t-76-14.48a16 16 0 0 1-8-13.88v-39.16c0 14.72 47.44 23.52 84 23.52s84-10.16 84-23.52z" fill="#2146FF" /></svg>