<?xml version="1.0" standalone="no"?><!DOCTYPE svg PUBLIC "-//W3C//DTD SVG 1.1//EN" "http://www.w3.org/Graphics/SVG/1.1/DTD/svg11.dtd"><svg class="icon" width="200px" height="200.00px" viewBox="0 0 1024 1024" version="1.1" xmlns="http://www.w3.org/2000/svg"><path d="M752 644a80 80 0 0 0 0 160v32a20 20 0 0 1-20 20H292a20 20 0 0 1-20-20V224a20 20 0 0 1 20-20h88v52a20 20 0 0 0 20 20h208a20 20 0 0 0 20-20V204h104a20 20 0 0 1 20 20z m-364-240v16h248v-16z m0 76v16h248v-16z m0 76v16h248v-16z" fill="#0942F0" /><path d="M468 204a36 36 0 0 1 72 0h72v44a12 12 0 0 1-12 12h-192a12 12 0 0 1-12-12V204z" fill="#0942F0" /><path d="M752 788a64 64 0 1 1 64-64 64 64 0 0 1-64 64z m-8-72h-28a4 4 0 0 0-4 4v8a4 4 0 0 0 4 4h28v28a4 4 0 0 0 4 4h8a4 4 0 0 0 4-4v-28h28a4 4 0 0 0 4-4v-8a4 4 0 0 0-4-4h-28v-28a4 4 0 0 0-4-4h-8a4 4 0 0 0-4 4z" fill="#47BAFF" /></svg>