<?xml version="1.0" standalone="no"?><!DOCTYPE svg PUBLIC "-//W3C//DTD SVG 1.1//EN" "http://www.w3.org/Graphics/SVG/1.1/DTD/svg11.dtd"><svg class="icon" width="200px" height="200.00px" viewBox="0 0 1024 1024" version="1.1" xmlns="http://www.w3.org/2000/svg"><path d="M516 237.16q-69.6 49.8-96 63.24-47.52 24-121.44 31.6-5.24 173.6 9.44 238.76c14.68 65.24 26.8 86.76 84 130.04q36 27.36 95.4 54.88h-0.28Q304 698.48 278.84 609.92T256 310.16a790.8 790.8 0 0 0 122.68-13.08q56-10.72 137.24-60z" fill="#0942F0" /><path d="M530.6 240.2q48.28 48.8 73.4 61.52 47.52 24 138.24 29.16 5.24 173.6-9.48 238.8c-14.68 65.2-26.76 86.72-84 130.04q-36 27.2-95 54.68v0.32q183.12-57.36 208.28-145.92t22.72-299.72a589.16 589.16 0 0 1-129.68-8.28q-53.76-10.32-124.48-60.6z" fill="#0942F0" /><path d="M523.28 745.04q-154.84-66.2-180.92-144T321.2 338.96a273.12 273.12 0 0 0 110.04-25.44A249.4 249.4 0 0 0 516 249.84a192 192 0 0 0 77.6 63.68q49.88 23.52 127.6 25.44 5.52 200-28 270.88t-169.92 135.2zM516 534.88l42.32 22.24-10.32-45.6 36.36-36.64H536l-20-48-20 48h-48l33.68 36.64-8 45.6z" fill="#47BAFF" /></svg>