<?xml version="1.0" standalone="no"?><!DOCTYPE svg PUBLIC "-//W3C//DTD SVG 1.1//EN" "http://www.w3.org/Graphics/SVG/1.1/DTD/svg11.dtd"><svg class="icon" width="200px" height="200.00px" viewBox="0 0 1024 1024" version="1.1" xmlns="http://www.w3.org/2000/svg"><path d="M248 236v52a20 20 0 0 0 20 20h208a20 20 0 0 0 20-20V236h104a20 20 0 0 1 20 20v612a20 20 0 0 1-20 20H160a20 20 0 0 1-20-20V256a20 20 0 0 1 20-20z m8 200v16h248v-16z m0 76v16h248v-16z m0 76v16h248v-16z" fill="#0942F0" /><path d="M336 236a36 36 0 0 1 72 0h72v44a12 12 0 0 1-12 12H276a12 12 0 0 1-12-12V236z" fill="#0942F0" /><path d="M688.36 744V364H776l-0.28 380h-87.36z" fill="#47BAFF" /><path d="M688.36 348v-32a20 20 0 0 1 20-20H756a20 20 0 0 1 20 20v32.76zM688 760h88v28l-36.4 29.8a12 12 0 0 1-15.2 0L688 788z" fill="#47BAFF" /></svg>