<?xml version="1.0" standalone="no"?><!DOCTYPE svg PUBLIC "-//W3C//DTD SVG 1.1//EN" "http://www.w3.org/Graphics/SVG/1.1/DTD/svg11.dtd"><svg class="icon" width="200px" height="200.00px" viewBox="0 0 1024 1024" version="1.1" xmlns="http://www.w3.org/2000/svg"><path d="M132 132m20 0l720 0q20 0 20 20l0 720q0 20-20 20l-720 0q-20 0-20-20l0-720q0-20 20-20Z" fill="#0942F0" /><path d="M268 324m12.52 0l94.96 0q12.52 0 12.52 12.52l0 94.96q0 12.52-12.52 12.52l-94.96 0q-12.52 0-12.52-12.52l0-94.96q0-12.52 12.52-12.52Z" fill="#FFFFFF" /><path d="M268 588m12.52 0l94.96 0q12.52 0 12.52 12.52l0 94.96q0 12.52-12.52 12.52l-94.96 0q-12.52 0-12.52-12.52l0-94.96q0-12.52 12.52-12.52Z" fill="#FFFFFF" /><path d="M476 368h288a8 8 0 0 1 8 8 8 8 0 0 1-8 8h-288a8 8 0 0 1-8-8 8 8 0 0 1 8-8zM476 640h288a8 8 0 0 1 8 8 8 8 0 0 1-8 8h-288a8 8 0 0 1-8-8 8 8 0 0 1 8-8z" fill="#FFFFFF" /><path d="M272 371.16l8.4-8.24a232.32 232.32 0 0 1 39.6 34.08q17.88-21.64 29.68-34.08T416 308l4.8 6.2A649.6 649.6 0 0 0 364 373.84a307.12 307.12 0 0 0-34.56 52.84h-15.96a258.04 258.04 0 0 0-20-30.84A294.44 294.44 0 0 0 272 371.16z" fill="#47BAFF" /></svg>