<?xml version="1.0" standalone="no"?><!DOCTYPE svg PUBLIC "-//W3C//DTD SVG 1.1//EN" "http://www.w3.org/Graphics/SVG/1.1/DTD/svg11.dtd"><svg class="icon" width="200px" height="200.00px" viewBox="0 0 1024 1024" version="1.1" xmlns="http://www.w3.org/2000/svg"><path d="M132 132m20 0l720 0q20 0 20 20l0 720q0 20-20 20l-720 0q-20 0-20-20l0-720q0-20 20-20Z" fill="#0942F0" /><path d="M514 514m-262 0a262 262 0 1 0 524 0 262 262 0 1 0-524 0Z" fill="#FFFFFF" /><path d="M504 432m4 0l16 0q4 0 4 4l0 76q0 4-4 4l-16 0q-4 0-4-4l0-76q0-4 4-4Z" fill="#47BAFF" /><path d="M420.927982 522.764005m3.464102-2l13.856406-8q3.464102-2 5.464102 1.464101l38 65.817931q2 3.464102-1.464102 5.464102l-13.856406 8q-3.464102 2-5.464102-1.464102l-38-65.817931q-2-3.464102 1.464102-5.464101Z" fill="#47BAFF" /><path d="M552.038872 584.715067m2-3.464102l38-65.81793q2-3.464102 5.464102-1.464102l13.856406 8q3.464102 2 1.464102 5.464102l-38 65.81793q-2 3.464102-5.464102 1.464102l-13.856406-8q-3.464102-2-1.464102-5.464102Z" fill="#47BAFF" /></svg>