<?xml version="1.0" standalone="no"?><!DOCTYPE svg PUBLIC "-//W3C//DTD SVG 1.1//EN" "http://www.w3.org/Graphics/SVG/1.1/DTD/svg11.dtd"><svg class="icon" width="200px" height="200.00px" viewBox="0 0 1024 1024" version="1.1" xmlns="http://www.w3.org/2000/svg"><path d="M892 336l-56.84 60.52-274 276.6-2.08 2.16-11.76 12-11.32 11.68V784a12 12 0 0 0 12 12h80l14.72-13.44 76-68.84L892 540.44V872a20 20 0 0 1-20 20H152a20 20 0 0 1-20-20V152a20 20 0 0 1 20-20h720a20 20 0 0 1 20 20z" fill="#0942F0" /><path d="M583.24 671.6l266.12-267.2L932 484l-274.48 268z m277.52-277.8l25.36-26.24a20 20 0 0 1 28-0.84l56.84 52a20 20 0 0 1 1.2 28.24c-0.4 0.4-0.76 0.8-1.16 1.16l-27.24 25.24z m-287.76 286.4L648 759.08l-21 20.92H564a12 12 0 0 1-12-12v-64z" fill="#47BAFF" /></svg>