<?xml version="1.0" standalone="no"?><!DOCTYPE svg PUBLIC "-//W3C//DTD SVG 1.1//EN" "http://www.w3.org/Graphics/SVG/1.1/DTD/svg11.dtd"><svg class="icon" width="200px" height="200.00px" viewBox="0 0 1024 1024" version="1.1" xmlns="http://www.w3.org/2000/svg"><path d="M240 824h546.4a20 20 0 0 1 20 20v43.2H220V844a20 20 0 0 1 20-20zM512 216a240 240 0 0 1 240 240v352H272v-352a240 240 0 0 1 240-240z m-1.16 164a42.04 42.04 0 0 0-4.48 0.24 42.68 42.68 0 0 0-37.96 46.96l23 216.8a24 24 0 0 0 24 21.48 23.32 23.32 0 0 0 23.24-21.56l16.28-216.64v-3.32A44 44 0 0 0 510.84 380z m3.16 364a30 30 0 1 0-30-30 30 30 0 0 0 30 30z" fill="#0942F0" /><path d="M510.88 395.36a30.24 30.24 0 0 1 30.92 29.56v2.72l-14.48 213.48a11.76 11.76 0 0 1-11.76 11 12.24 12.24 0 0 1-12-10.96l-22.12-212a30.56 30.56 0 0 1 27.2-33.56c0.56-0.2 1.4-0.24 2.24-0.24z" fill="#47BAFF" /><path d="M514 714m-18 0a18 18 0 1 0 36 0 18 18 0 1 0-36 0Z" fill="#47BAFF" /><path d="M512 144a8 8 0 0 1 8 8v36a8 8 0 0 1-8 8 8 8 0 0 1-8-8v-36a8 8 0 0 1 8-8z" fill="#47BAFF" /><path d="M217.302662 227.059256m5.850829-5.455987l0 0q5.85083-5.455987 11.306817 0.394843l40.919902 43.881222q5.455987 5.85083-0.394843 11.306817l0 0q-5.85083 5.455987-11.306817-0.394843l-40.919901-43.881222q-5.455987-5.85083 0.394842-11.306817Z" fill="#47BAFF" /><path d="M801.68 221.44a8 8 0 0 0-11.32 0.4l-40.92 44a8 8 0 0 0 0.4 11.32 8 8 0 0 0 11.32-0.4l40.92-44a8 8 0 0 0-0.4-11.32z" fill="#47BAFF" /></svg>