<svg viewBox="0 0 1024 1024"><path fill="#0942F0" d="M484 855.6h352a20 20 0 0 0 20-20V204a20 20 0 0 0-20-20H192a20 20 0 0 0-20 20v632a20 20 0 0 0 20 20h288a22.76 22.76 0 0 0 4-.4zM176 168h676a20 20 0 0 1 20 20v664a20 20 0 0 1-20 20H176a20 20 0 0 1-20-20V188a20 20 0 0 1 20-20z"/><path fill="#0942F0" d="M528 204h288a20 20 0 0 1 20 20v592a20 20 0 0 1-20 20H528z"/><path fill="#47BAFF" d="M592 444h188v48H592zm0 92h188v48H592z"/><path fill="#0942F0" d="M212 204h297.56v300H212a20 20 0 0 1-20-20V224a20 20 0 0 1 20-20z"/><path fill="#2146FF" d="M212 520h297.56v316H212a20 20 0 0 1-20-20V540a20 20 0 0 1 20-20z"/><path fill="#47BAFF" d="M328 336v-68h48v68h68v48h-68v72h-48v-72h-72v-48zM256 656h188v48H256z"/></svg>