<svg viewBox="0 0 1024 1024"><path fill="#47BAFF" d="M492 683.4l159.2-159.2a12 12 0 0 1 16.96 0l22.72 22.72a12 12 0 0 1 0 16.88L525.12 732.48l-.56.56-1.44 1.44L504 753.96a12 12 0 0 1-1.92 1.6 12 12 0 0 1-17 0L380.2 651a12 12 0 0 1 0-16.96l22.64-22.6a12 12 0 0 1 16.96 0z"/><path fill="#0942F0" d="M144 392h744v476a20 20 0 0 1-20 20H164a20 20 0 0 1-20-20zm348 276.92l-67.28-67.8a20 20 0 0 0-28.28 0L369.8 628a20 20 0 0 0 0 28l107.08 108a20 20 0 0 0 9.28 5.2 20 20 0 0 0 20.36-4.8l194-195.56a20 20 0 0 0 0-28.2l-26.56-26.76a20 20 0 0 0-28.28 0z"/><path fill="#0421AF" d="M195.28 268H840l56 33.44V424H136V301.44L195.28 268z"/><path fill="#0942F0" d="M600 420v-30.84H424V420H136V304h760v116z"/></svg>