<svg viewBox="0 0 1024 1024"><path fill="#0942F0" d="M892 336l-56.84 60.52-274 276.6-2.08 2.16-11.76 12L536 698.96V784a12 12 0 0 0 12 12h80l14.72-13.44 76-68.84L892 540.44V872a20 20 0 0 1-20 20H152a20 20 0 0 1-20-20V152a20 20 0 0 1 20-20h720a20 20 0 0 1 20 20z"/><path fill="#47BAFF" d="M583.24 671.6l266.12-267.2L932 484 657.52 752zm277.52-277.8l25.36-26.24a20 20 0 0 1 28-.84l56.84 52a20 20 0 0 1 1.2 28.24c-.4.4-.76.8-1.16 1.16l-27.24 25.24zM573 680.2l75 78.88L627 780h-63a12 12 0 0 1-12-12v-64z"/></svg>