<svg viewBox="0 0 1024 1024"><path fill="#0942F0" d="M240 824h546.4a20 20 0 0 1 20 20v43.2H220V844a20 20 0 0 1 20-20zm272-608a240 240 0 0 1 240 240v352H272V456a240 240 0 0 1 240-240zm-1.16 164a42.04 42.04 0 0 0-4.48.24 42.68 42.68 0 0 0-37.96 46.96l23 216.8a24 24 0 0 0 24 21.48 23.32 23.32 0 0 0 23.24-21.56l16.28-216.64v-3.32A44 44 0 0 0 510.84 380zM514 744a30 30 0 1 0-30-30 30 30 0 0 0 30 30z"/><path fill="#47BAFF" d="M510.88 395.36a30.24 30.24 0 0 1 30.92 29.56v2.72l-14.48 213.48a11.76 11.76 0 0 1-11.76 11 12.24 12.24 0 0 1-12-10.96l-22.12-212a30.56 30.56 0 0 1 27.2-33.56c.56-.2 1.4-.24 2.24-.24zM496 714a18 18 0 1 0 36 0 18 18 0 1 0-36 0zM512 144a8 8 0 0 1 8 8v36a8 8 0 0 1-8 8 8 8 0 0 1-8-8v-36a8 8 0 0 1 8-8zM223.15 221.6q5.85-5.45 11.31.4l40.92 43.88q5.46 5.85-.4 11.3-5.85 5.46-11.3-.39l-40.92-43.88q-5.46-5.85.4-11.3zM801.68 221.44a8 8 0 0 0-11.32.4l-40.92 44a8 8 0 0 0 .4 11.32 8 8 0 0 0 11.32-.4l40.92-44a8 8 0 0 0-.4-11.32z"/></svg>