<svg viewBox="0 0 1024 1024"><path fill="#0942F0" d="M752 660h116a16 16 0 0 0 16-16V380a16 16 0 0 0-16-16H160a16 16 0 0 0-16 16v264a16 16 0 0 0 16 16h124V548a24 24 0 0 1 24-24h420a24 24 0 0 1 24 24zM194 416a14 14 0 1 1 14-14 14 14 0 0 1-14 14zm52 0a14 14 0 1 1 14-14 14 14 0 0 1-14 14z"/><path fill="#0C39C2" d="M868 664H748V548a20 20 0 0 0-20-20H308a20 20 0 0 0-20 20v116H160a20 20 0 0 1-20-20V380a20 20 0 0 1 20-20h708a20 20 0 0 1 20 20v264a20 20 0 0 1-20 20zm-112-8h112a12 12 0 0 0 12-12V380a12 12 0 0 0-12-12H160a12 12 0 0 0-12 12v264a12 12 0 0 0 12 12h120V548a28 28 0 0 1 28-28h420a28 28 0 0 1 28 28zM246 420a18 18 0 1 1 18-18 18.04 18.04 0 0 1-18 18zm0-28a10 10 0 1 0 10 10 10 10 0 0 0-10-10zm-52 28a18 18 0 1 1 18-18 18.04 18.04 0 0 1-18 18zm0-28a10 10 0 1 0 10 10 10 10 0 0 0-10-10z"/><path fill="#47BAFF" d="M748 340v-44a16 16 0 0 0-16-16H296a16 16 0 0 0-16 16v44z"/><path fill="#0C39C2" d="M752 344H276v-48a20 20 0 0 1 20-20h436a20 20 0 0 1 20 20zm-468-8h460v-40a12 12 0 0 0-12-12H296a12 12 0 0 0-12 12z"/><path fill="#47BAFF" d="M324 548a16 16 0 0 0-16 16v304a16 16 0 0 0 16 16h388a16 16 0 0 0 16-16V564a16 16 0 0 0-16-16zm68 76h256a12 12 0 0 1 0 24H392a12 12 0 0 1 0-24zm0 72h256a12 12 0 0 1 0 24H392a12 12 0 0 1 0-24zm0 72h256a12 12 0 0 1 0 24H392a12 12 0 1 1 0-24z"/><path fill="#0C39C2" d="M712 888H324a20 20 0 0 1-20-20V564a20 20 0 0 1 20-20h388a20 20 0 0 1 20 20v304a20 20 0 0 1-20 20zM324 552a12 12 0 0 0-12 12v304a12 12 0 0 0 12 12h388a12 12 0 0 0 12-12V564a12 12 0 0 0-12-12zm324 243.64H392a16 16 0 1 1 0-32h256a16 16 0 0 1 0 32zm-256-24a8 8 0 1 0 0 16h256a8 8 0 0 0 0-16zm256-48H392a16 16 0 0 1 0-32h256a16 16 0 0 1 0 32zm-256-24a8 8 0 0 0 0 16h256a8 8 0 0 0 0-16zM648 652H392a16 16 0 0 1 0-32h256a16 16 0 0 1 0 32zm-256-24a8 8 0 0 0 0 16h256a8 8 0 0 0 0-16z"/></svg>